<svg width="20" height="20" viewBox="0 0 20 20" fill="none" xmlns="http://www.w3.org/2000/svg">
<g id="shopping 1" clip-path="url(#clip0_313_14577)">
<g id="Group">
<path id="Vector" d="M17.6005 11.6986C17.2063 11.6986 16.8705 11.3971 16.8351 10.9971C16.7974 10.574 17.1105 10.2005 17.5336 10.1632H17.5343C17.5859 9.74168 17.9666 9.44438 18.3916 9.49361C18.8136 9.54553 19.1132 9.92937 19.0612 10.3509C18.9732 11.0667 18.3874 11.6321 17.6689 11.6955C17.6459 11.6978 17.6228 11.6986 17.6005 11.6986Z" fill="#212121"/>
</g>
<g id="Group_2">
<path id="Vector_2" d="M5.10628 12.7914C4.71167 12.7914 4.3759 12.4895 4.3409 12.0891C4.3036 11.6657 4.61706 11.293 5.04013 11.2557L17.5335 10.1626C17.9589 10.1234 18.3297 10.4388 18.3666 10.8618C18.4039 11.2853 18.0904 11.658 17.6674 11.6953L5.17397 12.7884C5.15167 12.7903 5.12859 12.7914 5.10628 12.7914Z" fill="#212121"/>
</g>
<g id="Group_3">
<path id="Vector_3" d="M18.2988 11.0261C18.2672 11.0261 18.2357 11.0242 18.2038 11.0203C17.7819 10.9684 17.4822 10.5845 17.5342 10.163L18.4676 2.58499C18.5199 2.16345 18.9065 1.86384 19.3249 1.91576C19.7468 1.96768 20.0465 2.35153 19.9945 2.77306L19.0611 10.3511C19.0134 10.7407 18.6815 11.0261 18.2988 11.0261Z" fill="#212121"/>
</g>
<g id="Group_4">
<path id="Vector_4" d="M3.05746 4.86305C2.66284 4.86305 2.32708 4.56113 2.29208 4.16074C2.25477 3.73729 2.56823 3.3646 2.9913 3.32729L19.1635 1.9123C19.5881 1.87345 19.9596 2.18845 19.9966 2.61152C20.0339 3.03498 19.7204 3.40767 19.2973 3.44498L3.12515 4.85997C3.10246 4.86189 3.07976 4.86305 3.05746 4.86305Z" fill="#212121"/>
</g>
<g id="Group_5">
<path id="Vector_5" d="M2.85752 3.36021C2.47829 3.36021 2.14791 3.07944 2.09637 2.69291V2.69214C1.67176 2.69214 1.32715 2.34791 1.32715 1.92291C1.32715 1.49791 1.67176 1.15369 2.09637 1.15369C2.86406 1.15369 3.51944 1.72753 3.62136 2.48868C3.67752 2.90983 3.38175 3.29675 2.9606 3.35329C2.9256 3.3579 2.89175 3.36021 2.85752 3.36021Z" fill="#212121"/>
</g>
<g id="Group_6">
<path id="Vector_6" d="M2.09576 2.69238H0.769226C0.344613 2.69238 0 2.34777 0 1.92316C0 1.49854 0.344613 1.15393 0.769226 1.15393H2.09576C2.52037 1.15393 2.86498 1.49854 2.86498 1.92316C2.86498 2.34777 2.52075 2.69238 2.09576 2.69238Z" fill="#212121"/>
</g>
<g id="Group_7">
<path id="Vector_7" d="M3.93185 11.4198C3.55262 11.4198 3.22185 11.139 3.1707 10.7521L2.09571 2.69251C2.03955 2.27136 2.33532 1.88444 2.75647 1.82829C3.17493 1.77137 3.56493 2.0679 3.6207 2.48905L4.6953 10.549C4.75146 10.9701 4.45569 11.3571 4.03454 11.4132C3.99992 11.4178 3.96608 11.4198 3.93185 11.4198Z" fill="#212121"/>
</g>
<g id="Group_8">
<path id="Vector_8" d="M7.39151 18.8461C5.93229 18.8461 4.69922 17.6131 4.69922 16.1538C4.69922 14.6946 5.93229 13.4615 7.39151 13.4615C8.85073 13.4615 10.0838 14.6946 10.0838 16.1538C10.0838 17.6131 8.85073 18.8461 7.39151 18.8461ZM7.39151 15C6.7769 15 6.23767 15.5392 6.23767 16.1538C6.23767 16.7684 6.7769 17.3077 7.39151 17.3077C8.00612 17.3077 8.54535 16.7684 8.54535 16.1538C8.54535 15.5392 8.00573 15 7.39151 15Z" fill="#212121"/>
</g>
<g id="Group_9">
<path id="Vector_9" d="M14.6991 18.8461C13.2399 18.8461 12.0068 17.6131 12.0068 16.1538C12.0068 14.6946 13.2399 13.4615 14.6991 13.4615C16.1583 13.4615 17.3914 14.6946 17.3914 16.1538C17.3914 17.6131 16.1583 18.8461 14.6991 18.8461ZM14.6991 15C14.0845 15 13.5453 15.5392 13.5453 16.1538C13.5453 16.7684 14.0845 17.3077 14.6991 17.3077C15.3137 17.3077 15.853 16.7684 15.853 16.1538C15.853 15.5392 15.3134 15 14.6991 15Z" fill="#212121"/>
</g>
<g id="Group_10">
<path id="Vector_10" d="M5.45473 12.755C4.30819 12.755 3.32512 11.9096 3.17089 10.7519C3.11474 10.3307 3.41089 9.94382 3.83204 9.88805C4.25012 9.83075 4.64012 10.1281 4.69588 10.5492C4.7505 10.958 5.12127 11.2461 5.52511 11.2138C5.9578 11.1769 6.32164 11.4904 6.35857 11.913C6.39587 12.3361 6.08241 12.7092 5.65972 12.7465C5.59088 12.7519 5.52203 12.755 5.45473 12.755Z" fill="#212121"/>
</g>
</g>
<defs>
<clipPath id="clip0_313_14577">
<rect width="20" height="20" fill="white"/>
</clipPath>
</defs>
</svg>
