<svg width="13" height="12" viewBox="0 0 13 12" fill="none" xmlns="http://www.w3.org/2000/svg">
<g id="next 2" clip-path="url(#clip0_141_1236)">
<g id="Group">
<path id="Vector" d="M7.51903 9.25656C7.57973 9.1963 7.63096 9.12957 7.67551 9.06027L12.3264 4.40917C12.7799 3.95523 12.7801 3.21954 12.3262 2.76539C11.8725 2.31145 11.1366 2.31145 10.6824 2.76539L6.67702 6.7712L2.65055 2.74516C2.19704 2.291 1.46092 2.291 1.00677 2.74516C0.780119 2.97223 0.666688 3.26948 0.666688 3.56672C0.666688 3.86397 0.780119 4.16186 1.0072 4.38829L5.67853 9.06027C5.72308 9.12957 5.77409 9.19608 5.835 9.25656C6.06746 9.48902 6.37267 9.60052 6.67702 9.59535C6.98158 9.60073 7.28722 9.48902 7.51903 9.25656Z" fill="#212121"/>
</g>
</g>
<defs>
<clipPath id="clip0_141_1236">
<rect width="12" height="12" fill="white" transform="translate(12.6667) rotate(90)"/>
</clipPath>
</defs>
</svg>
