<svg width="35" height="35" viewBox="0 0 35 35" fill="none" xmlns="http://www.w3.org/2000/svg">
<path d="M33.7609 17.5659L24.3978 10.1141L24.3979 10.1141L24.3928 10.1102C23.111 9.11675 21.1664 9.99852 21.1664 11.667V14.1596C21.1664 14.7637 20.7828 15.1601 20.3354 15.1601H5.45203C4.40557 15.1601 3.5 15.9373 3.5 17.0637V20.9842C3.5 22.0294 4.3719 22.9362 5.45203 22.9362H20.3354C20.8125 22.9362 21.1664 23.2941 21.1664 23.8641V26.3567C21.1664 27.9978 23.1101 28.8866 24.371 27.8875L33.7037 20.6341C34.7376 19.8831 34.7731 18.3524 33.7609 17.5659Z" fill="#212121" stroke="#212121"/>
<path d="M30.7609 14.5659L21.3978 7.11414L21.3979 7.1141L21.3928 7.11015C20.111 6.11675 18.1664 6.99852 18.1664 8.66699V11.1596C18.1664 11.7637 17.7828 12.1601 17.3354 12.1601H2.45203C1.40557 12.1601 0.5 12.9373 0.5 14.0637V17.9842C0.5 19.0294 1.3719 19.9362 2.45203 19.9362H17.3354C17.8125 19.9362 18.1664 20.2941 18.1664 20.8641V23.3567C18.1664 24.9978 20.1101 25.8866 21.371 24.8875L30.7037 17.6341C31.7376 16.8831 31.7731 15.3524 30.7609 14.5659Z" fill="#D98C72" stroke="#212121"/>
</svg>
