<svg width="12" height="12" viewBox="0 0 12 12" fill="none" xmlns="http://www.w3.org/2000/svg">
<g id="next 2" clip-path="url(#clip0_238_5486)">
<g id="Group">
<path id="Vector" d="M2.74173 6.85245C2.80199 6.91315 2.86872 6.96438 2.93802 7.00893L7.58912 11.6598C8.04306 12.1133 8.77875 12.1135 9.2329 11.6596C9.68684 11.2059 9.68684 10.47 9.2329 10.0158L5.22709 6.01044L9.25314 1.98396C9.70729 1.53046 9.70729 0.794339 9.25314 0.340185C9.02606 0.113539 8.72881 0.00010769 8.43157 0.000107664C8.13432 0.000107638 7.83643 0.113539 7.61 0.340616L2.93802 5.01195C2.86872 5.0565 2.80221 5.10751 2.74173 5.16842C2.50927 5.40088 2.39777 5.70609 2.40294 6.01044C2.39756 6.315 2.50927 6.62064 2.74173 6.85245Z" fill="white"/>
</g>
</g>
<defs>
<clipPath id="clip0_238_5486">
<rect width="12" height="12" fill="white" transform="translate(12 12) rotate(-180)"/>
</clipPath>
</defs>
</svg>
