<svg width="20" height="20" viewBox="0 0 20 20" fill="none" xmlns="http://www.w3.org/2000/svg">
<g clip-path="url(#clip0_462_879)">
<path d="M17.6002 11.6986C17.206 11.6986 16.8702 11.3971 16.8349 10.9971C16.7972 10.574 17.1102 10.2005 17.5333 10.1632H17.5341C17.5856 9.74168 17.9664 9.44438 18.3914 9.49361C18.8133 9.54553 19.1129 9.92937 19.061 10.3509C18.9729 11.0667 18.3872 11.6321 17.6687 11.6955C17.6456 11.6978 17.6226 11.6986 17.6002 11.6986Z" fill="#FAF7F3"/>
<path d="M5.10653 12.7913C4.71191 12.7913 4.37615 12.4894 4.34115 12.089C4.30384 11.6655 4.6173 11.2929 5.04037 11.2555L17.5338 10.1625C17.9591 10.1232 18.3299 10.4386 18.3668 10.8617C18.4041 11.2852 18.0907 11.6579 17.6676 11.6952L5.17422 12.7882C5.15191 12.7902 5.12883 12.7913 5.10653 12.7913Z" fill="#FAF7F3"/>
<path d="M18.2985 11.0261C18.267 11.0261 18.2355 11.0242 18.2035 11.0203C17.7816 10.9684 17.482 10.5845 17.5339 10.163L18.4674 2.58499C18.5197 2.16345 18.9062 1.86384 19.3247 1.91576C19.7466 1.96768 20.0462 2.35153 19.9943 2.77306L19.0608 10.3511C19.0131 10.7407 18.6812 11.0261 18.2985 11.0261Z" fill="#FAF7F3"/>
<path d="M3.0577 4.86292C2.66309 4.86292 2.32732 4.561 2.29232 4.16062C2.25501 3.73716 2.56847 3.36447 2.99155 3.32717L19.1637 1.91218C19.5884 1.87333 19.9599 2.18833 19.9968 2.6114C20.0341 3.03486 19.7207 3.40755 19.2976 3.44486L3.12539 4.85985C3.1027 4.86177 3.08001 4.86292 3.0577 4.86292Z" fill="#FAF7F3"/>
<path d="M2.85728 3.36009C2.47805 3.36009 2.14767 3.07932 2.09613 2.69279V2.69202C1.67152 2.69202 1.3269 2.34779 1.3269 1.92279C1.3269 1.49779 1.67152 1.15356 2.09613 1.15356C2.86382 1.15356 3.5192 1.72741 3.62112 2.48856C3.67727 2.90971 3.38151 3.29663 2.96035 3.35317C2.92535 3.35778 2.89151 3.36009 2.85728 3.36009Z" fill="#FAF7F3"/>
<path d="M2.09576 2.6925H0.769226C0.344613 2.6925 0 2.34789 0 1.92328C0 1.49867 0.344613 1.15405 0.769226 1.15405H2.09576C2.52037 1.15405 2.86498 1.49867 2.86498 1.92328C2.86498 2.34789 2.52075 2.6925 2.09576 2.6925Z" fill="#FAF7F3"/>
<path d="M3.93185 11.4198C3.55262 11.4198 3.22185 11.139 3.1707 10.7521L2.09571 2.69251C2.03955 2.27136 2.33532 1.88444 2.75647 1.82829C3.17493 1.77137 3.56493 2.0679 3.6207 2.48905L4.6953 10.549C4.75146 10.9701 4.45569 11.3571 4.03454 11.4132C3.99992 11.4178 3.96608 11.4198 3.93185 11.4198Z" fill="#FAF7F3"/>
<path d="M7.39126 18.846C5.93204 18.846 4.69897 17.6129 4.69897 16.1537C4.69897 14.6945 5.93204 13.4614 7.39126 13.4614C8.85048 13.4614 10.0836 14.6945 10.0836 16.1537C10.0836 17.6129 8.85048 18.846 7.39126 18.846ZM7.39126 14.9999C6.77665 14.9999 6.23743 15.5391 6.23743 16.1537C6.23743 16.7683 6.77665 17.3076 7.39126 17.3076C8.00588 17.3076 8.5451 16.7683 8.5451 16.1537C8.5451 15.5391 8.00549 14.9999 7.39126 14.9999Z" fill="#FAF7F3"/>
<path d="M14.6989 18.846C13.2397 18.846 12.0066 17.6129 12.0066 16.1537C12.0066 14.6945 13.2397 13.4614 14.6989 13.4614C16.1581 13.4614 17.3912 14.6945 17.3912 16.1537C17.3912 17.6129 16.1581 18.846 14.6989 18.846ZM14.6989 14.9999C14.0843 14.9999 13.545 15.5391 13.545 16.1537C13.545 16.7683 14.0843 17.3076 14.6989 17.3076C15.3135 17.3076 15.8527 16.7683 15.8527 16.1537C15.8527 15.5391 15.3131 14.9999 14.6989 14.9999Z" fill="#FAF7F3"/>
<path d="M5.45424 12.7551C4.30771 12.7551 3.32464 11.9097 3.17041 10.752C3.11425 10.3309 3.4104 9.94395 3.83156 9.88818C4.24963 9.83087 4.63963 10.1282 4.6954 10.5493C4.75001 10.9582 5.12078 11.2462 5.52462 11.2139C5.95731 11.177 6.32115 11.4905 6.35808 11.9132C6.39538 12.3362 6.08193 12.7093 5.65924 12.7466C5.59039 12.752 5.52154 12.7551 5.45424 12.7551Z" fill="#FAF7F3"/>
</g>
<defs>
<clipPath id="clip0_462_879">
<rect width="20" height="20" fill="white"/>
</clipPath>
</defs>
</svg>
