<svg width="21" height="20" viewBox="0 0 21 20" fill="none" xmlns="http://www.w3.org/2000/svg">
<g id="calendar 1" clip-path="url(#clip0_151_3510)">
<g id="Group">
<path id="Vector" d="M16.4271 2.1875H15.6458V1.40625C15.6458 0.974766 15.2961 0.625 14.8646 0.625C14.4331 0.625 14.0833 0.974766 14.0833 1.40625V2.1875H6.58334V1.40625C6.58334 0.974766 6.23358 0.625 5.80209 0.625C5.37061 0.625 5.02084 0.974766 5.02084 1.40625V2.1875H4.23959C2.08569 2.1875 0.333344 3.93984 0.333344 6.09375V15.4688C0.333344 17.6227 2.08569 19.375 4.23959 19.375H16.4271C18.581 19.375 20.3333 17.6227 20.3333 15.4688V6.09375C20.3333 3.93984 18.581 2.1875 16.4271 2.1875ZM18.7708 15.4688C18.7708 16.7611 17.7194 17.8125 16.4271 17.8125H4.23959C2.94725 17.8125 1.89584 16.7611 1.89584 15.4688V6.09375C1.89584 4.80141 2.94725 3.75 4.23959 3.75H16.4271C17.7194 3.75 18.7708 4.80141 18.7708 6.09375V15.4688Z" fill="#212121"/>
<path id="Vector_2" d="M11.1146 8.4375H9.55209C9.12061 8.4375 8.77084 8.08773 8.77084 7.65625C8.77084 7.22477 9.12061 6.875 9.55209 6.875H11.1146C11.5461 6.875 11.8958 7.22477 11.8958 7.65625C11.8958 8.08773 11.5461 8.4375 11.1146 8.4375Z" fill="#212121"/>
<path id="Vector_3" d="M16.4271 8.4375H14.8646C14.4331 8.4375 14.0833 8.08773 14.0833 7.65625C14.0833 7.22477 14.4331 6.875 14.8646 6.875H16.4271C16.8586 6.875 17.2083 7.22477 17.2083 7.65625C17.2083 8.08773 16.8586 8.4375 16.4271 8.4375Z" fill="#212121"/>
<path id="Vector_4" d="M5.80209 11.5625H4.23959C3.80811 11.5625 3.45834 11.2127 3.45834 10.7812C3.45834 10.3498 3.80811 10 4.23959 10H5.80209C6.23358 10 6.58334 10.3498 6.58334 10.7812C6.58334 11.2127 6.23358 11.5625 5.80209 11.5625Z" fill="#212121"/>
<path id="Vector_5" d="M11.1146 11.5625H9.55209C9.12061 11.5625 8.77084 11.2127 8.77084 10.7812C8.77084 10.3498 9.12061 10 9.55209 10H11.1146C11.5461 10 11.8958 10.3498 11.8958 10.7812C11.8958 11.2127 11.5461 11.5625 11.1146 11.5625Z" fill="#212121"/>
<path id="Vector_6" d="M16.4271 11.5625H14.8646C14.4331 11.5625 14.0833 11.2127 14.0833 10.7812C14.0833 10.3498 14.4331 10 14.8646 10H16.4271C16.8586 10 17.2083 10.3498 17.2083 10.7812C17.2083 11.2127 16.8586 11.5625 16.4271 11.5625Z" fill="#212121"/>
<path id="Vector_7" d="M5.80209 14.6875H4.23959C3.80811 14.6875 3.45834 14.3377 3.45834 13.9062C3.45834 13.4748 3.80811 13.125 4.23959 13.125H5.80209C6.23358 13.125 6.58334 13.4748 6.58334 13.9062C6.58334 14.3377 6.23358 14.6875 5.80209 14.6875Z" fill="#212121"/>
<path id="Vector_8" d="M11.1146 14.6875H9.55209C9.12061 14.6875 8.77084 14.3377 8.77084 13.9062C8.77084 13.4748 9.12061 13.125 9.55209 13.125H11.1146C11.5461 13.125 11.8958 13.4748 11.8958 13.9062C11.8958 14.3377 11.5461 14.6875 11.1146 14.6875Z" fill="#212121"/>
</g>
</g>
<defs>
<clipPath id="clip0_151_3510">
<rect width="20" height="20" fill="white" transform="translate(0.333344)"/>
</clipPath>
</defs>
</svg>
