<svg width="18" height="18" viewBox="0 0 18 18" fill="none" xmlns="http://www.w3.org/2000/svg">
<path fill-rule="evenodd" clip-rule="evenodd" d="M13.8978 4.10225C14.1174 4.32192 14.1174 4.67806 13.8978 4.89775L4.89775 13.8978C4.67806 14.1174 4.32192 14.1174 4.10225 13.8978C3.88258 13.6781 3.88258 13.3219 4.10225 13.1022L13.1022 4.10225C13.3219 3.88258 13.6781 3.88258 13.8978 4.10225Z" fill="#FF6348"/>
<path fill-rule="evenodd" clip-rule="evenodd" d="M14.036 3.96088L14.0361 3.96089C14.3338 4.25866 14.3338 4.74142 14.0361 5.03921L14.0361 5.03922L5.03605 14.0392L5.03604 14.0392C4.73825 14.337 4.25549 14.337 3.95771 14.0392L3.9577 14.0392C3.65993 13.7414 3.65993 13.2587 3.9577 12.9609L3.95771 12.9609L12.9577 3.96088L12.9577 3.96088C13.2555 3.66311 13.7383 3.66311 14.036 3.96088ZM13.8946 4.1023C14.1143 4.32197 14.1143 4.67811 13.8946 4.8978L4.89463 13.8978C4.67494 14.1174 4.3188 14.1174 4.09913 13.8978C3.87946 13.6781 3.87946 13.322 4.09913 13.1023L13.0991 4.1023C13.3188 3.88263 13.6749 3.88263 13.8946 4.1023Z" fill="#FF6348"/>
<path fill-rule="evenodd" clip-rule="evenodd" d="M4.10225 4.10225C4.32192 3.88258 4.67806 3.88258 4.89775 4.10225L13.8978 13.1022C14.1174 13.3219 14.1174 13.6781 13.8978 13.8978C13.6781 14.1174 13.3219 14.1174 13.1022 13.8978L4.10225 4.89775C3.88258 4.67806 3.88258 4.32192 4.10225 4.10225Z" fill="#FF6348"/>
<path fill-rule="evenodd" clip-rule="evenodd" d="M4.09913 4.8978C3.87946 4.67811 3.87946 4.32197 4.09913 4.1023C4.3188 3.88263 4.67494 3.88263 4.89463 4.1023L13.8946 13.1023C14.1143 13.322 14.1143 13.6781 13.8946 13.8978C13.6749 14.1174 13.3188 14.1174 13.0991 13.8978L4.09913 4.8978ZM3.95771 3.96088C3.65993 4.25866 3.65994 4.74143 3.9577 5.03921L12.9577 14.0392C13.2555 14.337 13.7382 14.337 14.036 14.0392C14.3338 13.7414 14.3338 13.2587 14.0361 12.9609L5.03605 3.96088C4.73826 3.66311 4.25548 3.6631 3.95771 3.96088C3.95771 3.96088 3.95771 3.96088 3.95771 3.96088Z" fill="#FF6348"/>
</svg>
