<svg width="20" height="20" viewBox="0 0 20 20" fill="none" xmlns="http://www.w3.org/2000/svg">
<g id="cardigan 1" clip-path="url(#clip0_313_19240)">
<path id="path1425 (Stroke)" fill-rule="evenodd" clip-rule="evenodd" d="M16.2016 15.7139L20.0008 14.3311L15.9439 3.16211L13.7812 1.21093H6.2604L4.09849 3.16142L0 14.3304L3.79742 15.7126L5.86871 9.60215L4.75886 9.22594L3.07225 14.2015L1.50491 13.6311L5.09876 3.8373L6.71091 2.3828H13.3307L14.9421 3.83662L18.4995 13.6304L16.9339 14.2002L15.2839 9.22946L14.1717 9.59864L16.2016 15.7139Z" fill="#212121"/>
<path id="path1429 (Stroke)" fill-rule="evenodd" clip-rule="evenodd" d="M4.72637 18.7891H15.3123V6.55358L16.0113 3.63589L14.8717 3.36287L14.1404 6.41517V17.6172H5.89825V6.41516L5.16697 3.36286L4.02734 3.63589L4.72637 6.55359V18.7891Z" fill="#212121"/>
<path id="path1433 (Stroke)" fill-rule="evenodd" clip-rule="evenodd" d="M12.8031 1.67762C12.4046 3.59606 11.2618 5.31273 9.65625 6.47168L10.3421 7.42188C12.1749 6.09895 13.49 4.13304 13.9505 1.91594L12.8031 1.67762Z" fill="#212121"/>
<path id="path1437 (Stroke)" fill-rule="evenodd" clip-rule="evenodd" d="M11.756 18.2031V8.34379C11.756 7.68829 11.386 7.13462 10.8711 6.82273L10.5805 7.30259L10.8711 6.82273C8.98592 5.68089 7.6759 3.80842 7.23332 1.67771L6.08594 1.91604C6.59422 4.36307 8.09842 6.51341 10.264 7.82508C10.4753 7.95304 10.5841 8.15022 10.5841 8.34379V18.2031H11.756Z" fill="#212121"/>
<path id="path1441 (Stroke)" fill-rule="evenodd" clip-rule="evenodd" d="M9.41406 8.24219H8.24219V9.41406H9.41406V8.24219Z" fill="#212121"/>
<path id="path1445 (Stroke)" fill-rule="evenodd" clip-rule="evenodd" d="M9.41406 10.5859H8.24219V11.7578H9.41406V10.5859Z" fill="#212121"/>
<path id="path1449 (Stroke)" fill-rule="evenodd" clip-rule="evenodd" d="M9.41406 12.9297H8.24219V14.1016H9.41406V12.9297Z" fill="#212121"/>
</g>
<defs>
<clipPath id="clip0_313_19240">
<rect width="20" height="20" fill="white"/>
</clipPath>
</defs>
</svg>
