<svg width="20" height="20" viewBox="0 0 20 20" fill="none" xmlns="http://www.w3.org/2000/svg">
<path d="M4.60889 16.5692C4.28269 16.5881 3.96189 16.4797 3.71413 16.2667C3.2255 15.7752 3.2255 14.9813 3.71413 14.4898L14.4136 3.79026C14.9218 3.3147 15.7193 3.34114 16.1949 3.84936C16.6249 4.30894 16.65 5.01533 16.2535 5.50421L5.49104 16.2667C5.24647 16.4766 4.93082 16.5849 4.60889 16.5692Z" fill="white"/>
<path d="M15.2958 16.5691C14.9653 16.5676 14.6484 16.4364 14.4137 16.2036L3.71416 5.50406C3.26147 4.97542 3.32302 4.17985 3.85166 3.72711C4.32348 3.32306 5.01933 3.32306 5.49111 3.72711L16.2536 14.4266C16.7617 14.9023 16.788 15.6998 16.3123 16.2079C16.2934 16.2281 16.2738 16.2477 16.2536 16.2666C15.9901 16.4958 15.6433 16.6053 15.2958 16.5691Z" fill="white"/>
</svg>
