<svg width="7" height="8" viewBox="0 0 7 8" fill="none" xmlns="http://www.w3.org/2000/svg">
<g clip-path="url(#clip0_355_12752)">
<path d="M4.65499 4.00022L6.82053 1.83468C7.0598 1.59541 7.0598 1.20749 6.82053 0.968595L6.53184 0.679901C6.2925 0.440556 5.90458 0.440556 5.66568 0.679901L3.50022 2.84537L1.33468 0.679452C1.09541 0.440183 0.707491 0.440183 0.468595 0.679452L0.179452 0.968146C-0.0598174 1.20749 -0.0598174 1.59541 0.179452 1.8343L2.34537 4.00022L0.179901 6.16568C-0.0594436 6.40503 -0.0594436 6.79294 0.179901 7.03184L0.468595 7.32053C0.707865 7.5598 1.09578 7.5598 1.33468 7.32053L3.50022 5.15499L5.66568 7.32053C5.90503 7.5598 6.29294 7.5598 6.53184 7.32053L6.82053 7.03184C7.0598 6.7925 7.0598 6.40458 6.82053 6.16568L4.65499 4.00022Z" fill="#212121"/>
</g>
<defs>
<clipPath id="clip0_355_12752">
<rect width="7" height="7" fill="white" transform="translate(0 0.5)"/>
</clipPath>
</defs>
</svg>
