<svg width="26" height="25" viewBox="0 0 26 25" fill="none" xmlns="http://www.w3.org/2000/svg">
<g id="delivery (1) 1" clip-path="url(#clip0_140_980)">
<path id="Vector" d="M25.2467 7.45502L16.8483 2.84343C16.702 2.76313 16.5246 2.76313 16.3783 2.84343L13.2201 4.57759C13.1488 4.59743 13.0822 4.63386 13.0257 4.68421L7.97986 7.45502C7.82365 7.54085 7.72656 7.70488 7.72656 7.88302V8.88133H2.09302C1.82332 8.88133 1.60474 9.1001 1.60474 9.36961C1.60474 9.63931 1.82332 9.85789 2.09302 9.85789H7.72656V11.6157H4.92715C4.65745 11.6157 4.43887 11.8345 4.43887 12.104C4.43887 12.3737 4.65745 12.5923 4.92715 12.5923H7.72656V15.1313H3.625C3.3553 15.1313 3.13672 15.3501 3.13672 15.6196C3.13672 15.8893 3.3553 16.1079 3.625 16.1079H7.72656V17.1064C7.72656 17.2845 7.82365 17.4486 7.97986 17.5344L16.3783 22.146C16.4515 22.1862 16.5324 22.2063 16.6133 22.2063C16.6942 22.2063 16.775 22.1862 16.8483 22.146L25.2467 17.5344C25.4029 17.4486 25.5 17.2845 25.5 17.1064V14.9198C25.5 14.6503 25.2814 14.4315 25.0117 14.4315C24.742 14.4315 24.5234 14.6503 24.5234 14.9198V16.8174L17.1016 20.8929V12.7836L19.4619 11.4875V13.5444C19.4619 13.7172 19.5531 13.8771 19.7017 13.9648C19.7781 14.01 19.8642 14.0327 19.9502 14.0327C20.0311 14.0327 20.1121 14.0127 20.1856 13.9722L21.9853 12.9817C22.1412 12.8959 22.2381 12.7321 22.2381 12.5539V9.96318L24.5234 8.70833V11.0136C24.5234 11.2833 24.742 11.5018 25.0117 11.5018C25.2814 11.5018 25.5 11.2833 25.5 11.0136V7.88302C25.5 7.70488 25.4029 7.54085 25.2467 7.45502ZM16.125 20.8929L8.70312 16.8174V8.70833L16.125 12.7836V20.8929ZM16.6133 11.9377L9.22936 7.88302L11.55 6.60872L18.9341 10.6634L16.6133 11.9377ZM19.9487 10.1062L12.5646 6.05159L13.3651 5.61213L20.749 9.66678L19.9487 10.1062ZM21.2615 12.2653L20.4385 12.7183V10.9514L21.2615 10.4993V12.2653ZM21.7635 9.10964L14.3796 5.055L16.6133 3.82857L23.9972 7.88302L21.7635 9.10964Z" fill="white"/>
<path id="Vector_2" d="M25.0117 12.4785C24.8834 12.4785 24.7573 12.5302 24.6665 12.6216C24.5757 12.7124 24.5234 12.8379 24.5234 12.9668C24.5234 13.0952 24.5757 13.2212 24.6665 13.312C24.7573 13.4028 24.8834 13.4551 25.0117 13.4551C25.1401 13.4551 25.2662 13.4028 25.3569 13.312C25.4477 13.2212 25.5 13.0952 25.5 12.9668C25.5 12.8379 25.4477 12.7124 25.3569 12.6216C25.2662 12.5302 25.1401 12.4785 25.0117 12.4785Z" fill="white"/>
<path id="Vector_3" d="M1.68809 15.1313H0.988281C0.718582 15.1313 0.5 15.3501 0.5 15.6196C0.5 15.8893 0.718582 16.1079 0.988281 16.1079H1.68809C1.95779 16.1079 2.17637 15.8893 2.17637 15.6196C2.17637 15.3501 1.95779 15.1313 1.68809 15.1313Z" fill="white"/>
<path id="Vector_4" d="M3.46249 12.104C3.46249 11.9756 3.41023 11.8498 3.31925 11.759C3.22846 11.668 3.10258 11.6157 2.97421 11.6157C2.84566 11.6157 2.71977 11.668 2.62898 11.759C2.53762 11.8498 2.48593 11.9756 2.48593 12.104C2.48593 12.2326 2.53762 12.3584 2.62898 12.4492C2.71977 12.54 2.84566 12.5923 2.97421 12.5923C3.10258 12.5923 3.22846 12.5402 3.31925 12.4492C3.41023 12.3584 3.46249 12.2326 3.46249 12.104Z" fill="white"/>
</g>
<defs>
<clipPath id="clip0_140_980">
<rect width="25" height="25" fill="white" transform="translate(0.5)"/>
</clipPath>
</defs>
</svg>
