<svg width="1920" height="273" viewBox="0 0 1920 273" fill="none" xmlns="http://www.w3.org/2000/svg">
<g clip-path="url(#clip0_218_2650)">
<path d="M-0.855295 240.981C-2.67237 241.14 -4.13599 240.752 -5.24614 239.816C-6.3563 238.881 -6.98227 237.476 -7.12403 235.602L-10.0607 202.035C-10.2218 200.194 -9.84798 198.706 -8.93925 197.572C-8.03053 196.438 -6.65757 195.8 -4.82038 195.66L2.13682 195.051C3.95389 194.892 5.41667 195.282 6.52515 196.219C7.63364 197.157 8.26104 198.557 8.40735 200.419L9.14801 208.885L4.50345 209.291L3.78537 201.084C3.6893 199.986 3.09064 199.485 1.98939 199.581L-3.87756 200.094C-4.97882 200.191 -5.48142 200.788 -5.38535 201.886L-2.49259 234.95C-2.39461 236.07 -1.79491 236.583 -0.693489 236.489L5.18447 235.974C6.28573 235.878 6.78728 235.269 6.68914 234.147L5.97081 225.937L10.6154 225.53L11.3551 233.985C11.5182 235.85 11.1436 237.338 10.2311 238.451C9.31858 239.563 7.94554 240.2 6.11195 240.36L-0.855295 240.981Z" fill="#E5D9C3"/>
<path d="M33.0082 238.018L27.5295 238.498L17.4828 199.703L19.8255 239.163L15.28 239.561L13.4294 194.055L19.4863 193.525L25.6036 215.882L29.6701 233.824L30.0885 233.787L30.9777 215.412L33.106 192.333L39.1629 191.804L45.2397 236.94L40.7163 237.336L36.1463 198.07L33.0082 238.018Z" fill="#E5D9C3"/>
<path d="M48.6623 236.649L44.6973 191.328L57.4636 190.211C59.2641 190.053 60.7186 190.443 61.8271 191.381C62.9356 192.318 63.5722 193.718 63.7368 195.579L66.2653 224.479C66.5712 227.976 66.0466 230.636 64.6913 232.458C63.2228 234.445 60.6155 235.602 56.8692 235.928L48.6623 236.649ZM52.9539 231.795L56.4889 231.486C58.5648 231.304 59.9802 230.719 60.7353 229.731C61.4903 228.743 61.7754 227.129 61.5904 224.888L59.0846 196.246C58.9885 195.148 58.3843 194.647 57.2721 194.744L49.7615 195.402L52.9539 231.795Z" fill="#E5D9C3"/>
<path d="M71.1823 189.011L79.7667 211.218L84.2329 224.47L82.5648 210.857L80.5815 188.188L85.0333 187.799L88.9984 233.12L84.5191 233.512L75.9622 211.302L71.4967 198.059L73.1648 211.671L75.1474 234.332L70.6956 234.721L66.7305 189.4L71.1823 189.011Z" fill="#E5D9C3"/>
<path d="M98.8975 239.099L98.7814 237.772L-14.2285 247.659L-19.168 191.2L92.508 181.429L97.5636 239.215L98.8975 239.099L100.229 238.982L94.9407 178.542L-22.0679 188.779L-16.6642 250.543L100.344 240.306L100.229 238.982L98.8975 239.099Z" fill="#E5D9C3"/>
<path d="M126.657 229.825C124.84 229.984 123.377 229.596 122.267 228.66C121.156 227.725 120.53 226.32 120.389 224.446L117.452 190.879C117.291 189.038 117.665 187.55 118.573 186.416C119.482 185.282 120.855 184.644 122.692 184.504L129.65 183.895C131.467 183.736 132.929 184.126 134.038 185.063C135.146 186.001 135.774 187.401 135.92 189.263L136.661 197.729L132.016 198.135L131.298 189.928C131.202 188.83 130.603 188.329 129.502 188.425L123.635 188.938C122.534 189.035 122.031 189.632 122.127 190.73L125.02 223.794C125.118 224.914 125.718 225.427 126.819 225.333L132.697 224.818C133.798 224.722 134.3 224.113 134.202 222.991L133.484 214.781L138.128 214.374L138.868 222.829C139.031 224.694 138.656 226.183 137.744 227.295C136.831 228.408 135.458 229.044 133.625 229.204L126.657 229.825Z" fill="#E5D9C3"/>
<path d="M160.521 226.862L155.042 227.342L144.995 188.547L147.338 228.007L142.793 228.405L140.942 182.899L146.999 182.369L153.116 204.726L157.183 222.668L157.601 222.631L158.49 204.256L160.619 181.178L166.676 180.648L172.752 225.784L168.229 226.18L163.659 186.914L160.521 226.862Z" fill="#E5D9C3"/>
<path d="M176.175 225.493L172.21 180.172L184.976 179.055C186.777 178.897 188.231 179.287 189.34 180.225C190.448 181.162 191.085 182.562 191.25 184.423L193.778 213.323C194.084 216.82 193.559 219.48 192.204 221.302C190.736 223.29 188.128 224.446 184.382 224.772L176.175 225.493ZM180.467 220.639L184.002 220.33C186.077 220.148 187.493 219.563 188.248 218.575C189.003 217.587 189.288 215.973 189.103 213.732L186.597 185.09C186.501 183.992 185.897 183.491 184.785 183.589L177.274 184.246L180.467 220.639Z" fill="#E5D9C3"/>
<path d="M198.695 177.855L207.279 200.062L211.746 213.314L210.077 199.701L208.094 177.032L212.546 176.643L216.511 221.964L212.032 222.356L203.475 200.146L199.009 186.903L200.678 200.515L202.66 223.176L198.208 223.565L194.243 178.244L198.695 177.855Z" fill="#E5D9C3"/>
<path d="M226.41 227.943L226.294 226.616L113.284 236.503L108.345 180.044L220.021 170.273L225.076 228.06L226.41 227.943L227.741 227.826L222.453 167.386L105.445 177.623L110.848 239.387L227.857 229.15L227.741 227.826L226.41 227.943Z" fill="#E5D9C3"/>
<path d="M254.171 218.669C252.354 218.828 250.89 218.44 249.78 217.504C248.67 216.569 248.044 215.164 247.902 213.29L244.965 179.723C244.804 177.882 245.178 176.394 246.087 175.26C246.995 174.126 248.368 173.488 250.206 173.348L257.163 172.739C258.98 172.58 260.443 172.97 261.551 173.907C262.66 174.845 263.287 176.245 263.433 178.107L264.174 186.573L259.529 186.98L258.811 178.772C258.715 177.674 258.117 177.173 257.015 177.269L251.148 177.783C250.047 177.879 249.544 178.476 249.641 179.574L252.533 212.639C252.631 213.758 253.231 214.271 254.332 214.177L260.21 213.662C261.312 213.566 261.813 212.957 261.715 211.835L260.997 203.625L265.641 203.218L266.381 211.673C266.544 213.538 266.169 215.027 265.257 216.139C264.344 217.252 262.971 217.888 261.138 218.049L254.171 218.669Z" fill="#E5D9C3"/>
<path d="M288.034 215.706L282.555 216.186L272.509 177.391L274.851 216.852L270.306 217.249L268.455 171.743L274.512 171.213L280.629 193.57L284.696 211.512L285.114 211.475L286.004 193.1L288.132 170.022L294.189 169.492L300.266 214.628L295.742 215.024L291.172 175.758L288.034 215.706Z" fill="#E5D9C3"/>
<path d="M303.688 214.337L299.723 169.016L312.489 167.899C314.29 167.741 315.745 168.131 316.853 169.069C317.961 170.006 318.598 171.406 318.763 173.267L321.291 202.167C321.597 205.664 321.072 208.324 319.717 210.146C318.249 212.134 315.641 213.29 311.895 213.616L303.688 214.337ZM307.98 209.483L311.515 209.174C313.591 208.992 315.006 208.407 315.761 207.419C316.516 206.431 316.801 204.817 316.616 202.576L314.11 173.934C314.014 172.836 313.41 172.335 312.298 172.433L304.787 173.09L307.98 209.483Z" fill="#E5D9C3"/>
<path d="M326.208 166.699L334.793 188.906L339.259 202.158L337.591 188.545L335.607 165.876L340.059 165.487L344.024 210.808L339.545 211.2L330.988 188.99L326.523 175.747L328.191 189.359L330.173 212.02L325.721 212.409L321.756 167.088L326.208 166.699Z" fill="#E5D9C3"/>
<path d="M353.923 216.787L353.807 215.46L240.797 225.347L235.858 168.888L347.534 159.117L352.59 216.904L353.923 216.787L355.254 216.67L349.967 156.231L232.958 166.467L238.362 228.232L355.37 217.995L355.254 216.67L353.923 216.787Z" fill="#E5D9C3"/>
<path d="M381.683 207.513C379.866 207.672 378.403 207.284 377.292 206.348C376.182 205.413 375.556 204.008 375.415 202.134L372.478 168.567C372.317 166.726 372.691 165.239 373.599 164.104C374.508 162.97 375.881 162.333 377.718 162.192L384.675 161.583C386.492 161.424 387.955 161.814 389.064 162.751C390.172 163.689 390.8 165.089 390.946 166.951L391.687 175.417L387.042 175.824L386.324 167.616C386.228 166.518 385.629 166.017 384.528 166.113L378.661 166.627C377.56 166.723 377.057 167.32 377.153 168.418L380.046 201.483C380.144 202.603 380.744 203.115 381.845 203.021L387.723 202.507C388.824 202.41 389.326 201.801 389.228 200.679L388.509 192.469L393.154 192.062L393.894 200.517C394.057 202.382 393.682 203.871 392.77 204.983C391.857 206.096 390.484 206.732 388.651 206.893L381.683 207.513Z" fill="#E5D9C3"/>
<path d="M415.547 204.551L410.068 205.03L400.021 166.235L402.364 205.696L397.819 206.093L395.968 160.587L402.025 160.057L408.142 182.414L412.209 200.356L412.627 200.319L413.516 181.944L415.645 158.866L421.702 158.336L427.778 203.472L423.255 203.868L418.685 164.602L415.547 204.551Z" fill="#E5D9C3"/>
<path d="M431.201 203.181L427.236 157.86L440.002 156.743C441.803 156.585 443.257 156.975 444.366 157.913C445.474 158.851 446.111 160.25 446.275 162.111L448.804 191.011C449.11 194.508 448.585 197.168 447.23 198.99C445.761 200.978 443.154 202.134 439.408 202.46L431.201 203.181ZM435.492 198.327L439.027 198.018C441.103 197.836 442.519 197.251 443.274 196.263C444.029 195.275 444.314 193.661 444.129 191.42L441.623 162.778C441.527 161.68 440.923 161.179 439.811 161.277L432.3 161.934L435.492 198.327Z" fill="#E5D9C3"/>
<path d="M453.721 155.543L462.305 177.75L466.771 191.002L465.103 177.389L463.12 154.72L467.572 154.331L471.537 199.652L467.058 200.044L458.501 177.834L454.035 164.591L455.703 178.203L457.686 200.864L453.234 201.253L449.269 155.932L453.721 155.543Z" fill="#E5D9C3"/>
<path d="M481.436 205.631L481.32 204.304L368.31 214.191L363.371 157.732L475.047 147.962L480.102 205.748L481.436 205.631L482.767 205.515L477.479 145.075L360.471 155.312L365.874 217.076L482.883 206.839L482.767 205.515L481.436 205.631Z" fill="#E5D9C3"/>
<path d="M509.196 196.357C507.379 196.516 505.916 196.128 504.806 195.192C503.695 194.257 503.069 192.852 502.928 190.978L499.991 157.411C499.83 155.57 500.204 154.083 501.113 152.948C502.021 151.814 503.394 151.177 505.231 151.036L512.189 150.427C514.006 150.269 515.468 150.658 516.577 151.595C517.685 152.533 518.313 153.933 518.459 155.796L519.2 164.261L514.555 164.668L513.837 156.46C513.741 155.362 513.142 154.861 512.041 154.957L506.174 155.471C505.073 155.567 504.57 156.164 504.666 157.262L507.559 190.327C507.657 191.447 508.257 191.959 509.358 191.865L515.236 191.351C516.337 191.254 516.839 190.645 516.741 189.523L516.023 181.313L520.667 180.906L521.407 189.361C521.57 191.226 521.195 192.715 520.283 193.827C519.37 194.94 517.997 195.576 516.164 195.737L509.196 196.357Z" fill="#E5D9C3"/>
<path d="M543.06 193.395L537.581 193.874L527.535 155.079L529.877 194.54L525.332 194.937L523.481 149.431L529.538 148.901L535.655 171.258L539.722 189.2L540.14 189.163L541.029 170.788L543.158 147.71L549.215 147.18L555.291 192.316L550.768 192.712L546.198 153.446L543.06 193.395Z" fill="#E5D9C3"/>
<path d="M558.714 192.025L554.749 146.704L567.515 145.587C569.316 145.429 570.77 145.819 571.879 146.757C572.987 147.695 573.624 149.094 573.789 150.955L576.317 179.855C576.623 183.352 576.098 186.012 574.743 187.834C573.275 189.822 570.667 190.978 566.921 191.304L558.714 192.025ZM563.006 187.171L566.541 186.862C568.617 186.68 570.032 186.096 570.787 185.107C571.542 184.119 571.827 182.505 571.642 180.264L569.136 151.622C569.04 150.524 568.436 150.023 567.324 150.121L559.813 150.778L563.006 187.171Z" fill="#E5D9C3"/>
<path d="M581.234 144.387L589.818 166.594L594.285 179.846L592.617 166.233L590.633 143.564L595.085 143.175L599.05 188.496L594.571 188.888L586.014 166.678L581.548 153.435L583.217 167.047L585.199 189.708L580.747 190.097L576.782 144.776L581.234 144.387Z" fill="#E5D9C3"/>
<path d="M608.949 194.475L608.833 193.148L495.823 203.035L490.884 146.576L602.56 136.806L607.615 194.592L608.949 194.475L610.28 194.359L604.992 133.919L487.984 144.156L493.388 205.92L610.396 195.683L610.28 194.359L608.949 194.475Z" fill="#E5D9C3"/>
<path d="M636.709 185.201C634.892 185.36 633.428 184.972 632.318 184.036C631.208 183.101 630.582 181.696 630.44 179.822L627.504 146.255C627.343 144.414 627.716 142.927 628.625 141.792C629.534 140.658 630.907 140.021 632.744 139.88L639.701 139.272C641.518 139.113 642.981 139.502 644.09 140.439C645.198 141.377 645.825 142.777 645.972 144.64L646.712 153.105L642.068 153.512L641.35 145.304C641.254 144.206 640.655 143.705 639.554 143.801L633.687 144.315C632.586 144.411 632.083 145.008 632.179 146.106L635.072 179.171C635.17 180.291 635.77 180.803 636.871 180.709L642.749 180.195C643.85 180.098 644.352 179.489 644.254 178.367L643.535 170.157L648.18 169.751L648.92 178.205C649.083 180.07 648.708 181.559 647.796 182.671C646.883 183.784 645.51 184.42 643.676 184.581L636.709 185.201Z" fill="#E5D9C3"/>
<path d="M670.573 182.239L665.094 182.718L655.047 143.923L657.39 183.384L652.844 183.781L650.994 138.275L657.051 137.745L663.168 160.102L667.235 178.044L667.653 178.008L668.542 159.632L670.67 136.554L676.727 136.024L682.804 181.16L678.281 181.556L673.711 142.29L670.573 182.239Z" fill="#E5D9C3"/>
<path d="M686.227 180.869L682.262 135.548L695.028 134.431C696.829 134.274 698.283 134.664 699.392 135.601C700.5 136.539 701.137 137.938 701.301 139.799L703.83 168.699C704.136 172.196 703.611 174.856 702.256 176.679C700.787 178.666 698.18 179.822 694.434 180.148L686.227 180.869ZM690.518 176.015L694.053 175.706C696.129 175.524 697.545 174.94 698.3 173.952C699.055 172.963 699.34 171.349 699.155 169.108L696.649 140.466C696.553 139.368 695.949 138.868 694.837 138.965L687.326 139.622L690.518 176.015Z" fill="#E5D9C3"/>
<path d="M708.747 133.231L717.331 155.438L721.797 168.69L720.129 155.077L718.146 132.409L722.598 132.019L726.563 177.34L722.084 177.732L713.527 155.522L709.061 142.279L710.729 155.891L712.712 178.552L708.26 178.941L704.295 133.62L708.747 133.231Z" fill="#E5D9C3"/>
<path d="M736.462 183.319L736.346 181.992L623.336 191.879L618.396 135.42L730.072 125.65L735.128 183.436L736.462 183.319L737.793 183.203L732.505 122.763L615.497 133L620.9 194.764L737.909 184.527L737.793 183.203L736.462 183.319Z" fill="#E5D9C3"/>
<path d="M764.222 174.045C762.405 174.204 760.942 173.816 759.831 172.881C758.721 171.945 758.095 170.54 757.954 168.666L755.017 135.099C754.856 133.258 755.23 131.771 756.138 130.636C757.047 129.502 758.42 128.865 760.257 128.724L767.214 128.116C769.032 127.957 770.494 128.346 771.603 129.283C772.711 130.221 773.339 131.621 773.485 133.484L774.226 141.949L769.581 142.356L768.863 134.148C768.767 133.05 768.168 132.549 767.067 132.645L761.2 133.159C760.099 133.255 759.596 133.852 759.692 134.95L762.585 168.015C762.683 169.135 763.283 169.647 764.384 169.553L770.262 169.039C771.363 168.942 771.865 168.333 771.767 167.211L771.048 159.001L775.693 158.595L776.433 167.049C776.596 168.914 776.221 170.403 775.309 171.515C774.396 172.628 773.023 173.264 771.19 173.425L764.222 174.045Z" fill="#E5D9C3"/>
<path d="M798.086 171.083L792.607 171.562L782.56 132.767L784.903 172.228L780.358 172.625L778.507 127.119L784.564 126.589L790.681 148.946L794.748 166.888L795.166 166.852L796.055 148.476L798.184 125.398L804.241 124.868L810.317 170.004L805.794 170.4L801.224 131.134L798.086 171.083Z" fill="#E5D9C3"/>
<path d="M813.74 169.713L809.775 124.392L822.541 123.275C824.342 123.118 825.796 123.508 826.905 124.445C828.013 125.383 828.65 126.782 828.814 128.643L831.343 157.543C831.649 161.04 831.124 163.7 829.769 165.523C828.3 167.51 825.693 168.666 821.947 168.992L813.74 169.713ZM818.031 164.859L821.567 164.55C823.642 164.368 825.058 163.784 825.813 162.796C826.568 161.807 826.853 160.193 826.668 157.952L824.162 129.31C824.066 128.212 823.462 127.712 822.35 127.809L814.839 128.466L818.031 164.859Z" fill="#E5D9C3"/>
<path d="M836.26 122.075L844.844 144.282L849.311 157.534L847.642 143.921L845.659 121.253L850.111 120.863L854.076 166.184L849.597 166.576L841.04 144.366L836.574 131.123L838.242 144.735L840.225 167.396L835.773 167.786L831.808 122.464L836.26 122.075Z" fill="#E5D9C3"/>
<path d="M863.975 172.163L863.859 170.836L750.849 180.723L745.91 124.264L857.586 114.494L862.641 172.28L863.975 172.163L865.306 172.047L860.018 111.607L743.01 121.844L748.413 183.608L865.422 173.371L865.306 172.047L863.975 172.163Z" fill="#E5D9C3"/>
<path d="M891.735 162.889C889.918 163.048 888.454 162.66 887.344 161.725C886.234 160.789 885.608 159.384 885.466 157.51L882.53 123.943C882.369 122.102 882.742 120.615 883.651 119.48C884.56 118.346 885.933 117.709 887.77 117.568L894.727 116.96C896.544 116.801 898.007 117.19 899.115 118.128C900.224 119.065 900.851 120.465 900.998 122.328L901.738 130.794L897.094 131.2L896.376 122.992C896.28 121.894 895.681 121.393 894.58 121.49L888.713 122.003C887.612 122.099 887.109 122.696 887.205 123.794L890.098 156.859C890.196 157.979 890.795 158.492 891.897 158.397L897.775 157.883C898.876 157.786 899.378 157.177 899.279 156.056L898.561 147.845L903.206 147.439L903.945 155.893C904.109 157.758 903.734 159.247 902.821 160.359C901.909 161.472 900.536 162.108 898.702 162.269L891.735 162.889Z" fill="#E5D9C3"/>
<path d="M925.599 159.927L920.12 160.406L910.073 121.611L912.416 161.072L907.87 161.47L906.02 115.963L912.077 115.434L918.194 137.79L922.26 155.732L922.679 155.696L923.568 137.32L925.696 114.242L931.753 113.712L937.83 158.848L933.307 159.244L928.737 119.978L925.599 159.927Z" fill="#E5D9C3"/>
<path d="M941.253 158.557L937.288 113.236L950.054 112.119C951.854 111.962 953.309 112.352 954.417 113.289C955.526 114.227 956.162 115.626 956.327 117.487L958.856 146.387C959.162 149.884 958.637 152.544 957.282 154.367C955.813 156.354 953.206 157.511 949.46 157.836L941.253 158.557ZM945.544 153.704L949.079 153.394C951.155 153.213 952.571 152.628 953.326 151.64C954.081 150.652 954.366 149.037 954.181 146.796L951.675 118.154C951.579 117.056 950.975 116.556 949.862 116.653L942.352 117.31L945.544 153.704Z" fill="#E5D9C3"/>
<path d="M963.773 110.919L972.357 133.126L976.823 146.378L975.155 132.765L973.172 110.097L977.624 109.707L981.589 155.028L977.11 155.42L968.553 133.21L964.087 119.967L965.755 133.58L967.738 156.24L963.286 156.63L959.321 111.308L963.773 110.919Z" fill="#E5D9C3"/>
<path d="M991.488 161.007L991.372 159.68L878.362 169.567L873.422 113.108L985.098 103.338L990.154 161.124L991.488 161.007L992.819 160.891L987.531 100.451L870.522 110.688L875.926 172.452L992.935 162.215L992.819 160.891L991.488 161.007Z" fill="#E5D9C3"/>
<path d="M1019.25 151.734C1017.43 151.892 1015.97 151.504 1014.86 150.569C1013.75 149.633 1013.12 148.228 1012.98 146.354L1010.04 112.788C1009.88 110.947 1010.26 109.459 1011.16 108.325C1012.07 107.19 1013.45 106.553 1015.28 106.412L1022.24 105.804C1024.06 105.645 1025.52 106.034 1026.63 106.972C1027.74 107.909 1028.36 109.309 1028.51 111.172L1029.25 119.638L1024.61 120.044L1023.89 111.836C1023.79 110.738 1023.19 110.237 1022.09 110.334L1016.23 110.847C1015.12 110.943 1014.62 111.54 1014.72 112.638L1017.61 145.703C1017.71 146.823 1018.31 147.336 1019.41 147.241L1025.29 146.727C1026.39 146.63 1026.89 146.021 1026.79 144.9L1026.07 136.689L1030.72 136.283L1031.46 144.738C1031.62 146.602 1031.25 148.091 1030.33 149.204C1029.42 150.316 1028.05 150.952 1026.21 151.113L1019.25 151.734Z" fill="#E5D9C3"/>
<path d="M1053.11 148.771L1047.63 149.25L1037.59 110.455L1039.93 149.916L1035.38 150.314L1033.53 104.807L1039.59 104.278L1045.71 126.634L1049.77 144.576L1050.19 144.54L1051.08 126.164L1053.21 103.086L1059.27 102.556L1065.34 147.692L1060.82 148.088L1056.25 108.822L1053.11 148.771Z" fill="#E5D9C3"/>
<path d="M1068.77 147.401L1064.8 102.08L1077.57 100.963C1079.37 100.806 1080.82 101.196 1081.93 102.133C1083.04 103.071 1083.68 104.47 1083.84 106.331L1086.37 135.231C1086.67 138.728 1086.15 141.388 1084.79 143.211C1083.33 145.198 1080.72 146.355 1076.97 146.681L1068.77 147.401ZM1073.06 142.548L1076.59 142.238C1078.67 142.057 1080.08 141.472 1080.84 140.484C1081.59 139.496 1081.88 137.881 1081.69 135.64L1079.19 106.998C1079.09 105.9 1078.49 105.4 1077.38 105.497L1069.86 106.154L1073.06 142.548Z" fill="#E5D9C3"/>
<path d="M1091.29 99.763L1099.87 121.97L1104.34 135.222L1102.67 121.61L1100.69 98.9407L1105.14 98.5512L1109.1 143.872L1104.62 144.264L1096.07 122.054L1091.6 108.811L1093.27 122.424L1095.25 145.084L1090.8 145.474L1086.83 100.153L1091.29 99.763Z" fill="#E5D9C3"/>
<path d="M1119 149.851L1118.88 148.524L1005.87 158.411L1000.94 101.952L1112.61 92.1818L1117.67 149.968L1119 149.851L1120.33 149.735L1115.04 89.2949L998.035 99.5318L1003.44 161.296L1120.45 151.059L1120.33 149.735L1119 149.851Z" fill="#E5D9C3"/>
<path d="M1146.76 140.578C1144.94 140.737 1143.48 140.348 1142.37 139.413C1141.26 138.477 1140.63 137.072 1140.49 135.198L1137.56 101.632C1137.39 99.7906 1137.77 98.3029 1138.68 97.1686C1139.59 96.0343 1140.96 95.3969 1142.8 95.2565L1149.75 94.6478C1151.57 94.4888 1153.03 94.8781 1154.14 95.8156C1155.25 96.7532 1155.88 98.1532 1156.02 100.016L1156.76 108.482L1152.12 108.888L1151.4 100.68C1151.31 99.5822 1150.71 99.0813 1149.61 99.1777L1143.74 99.691C1142.64 99.7873 1142.13 100.385 1142.23 101.483L1145.12 134.547C1145.22 135.667 1145.82 136.18 1146.92 136.085L1152.8 135.571C1153.9 135.475 1154.4 134.865 1154.31 133.744L1153.59 125.533L1158.23 125.127L1158.97 133.582C1159.13 135.446 1158.76 136.935 1157.85 138.048C1156.93 139.16 1155.56 139.797 1153.73 139.957L1146.76 140.578Z" fill="#E5D9C3"/>
<path d="M1180.62 137.615L1175.15 138.094L1165.1 99.2993L1167.44 138.76L1162.9 139.158L1161.05 93.6515L1167.1 93.1216L1173.22 115.479L1177.29 133.42L1177.7 133.384L1178.59 115.008L1180.72 91.93L1186.78 91.4001L1192.86 136.536L1188.33 136.932L1183.76 97.6664L1180.62 137.615Z" fill="#E5D9C3"/>
<path d="M1196.28 136.245L1192.31 90.9243L1205.08 89.8073C1206.88 89.6498 1208.33 90.0398 1209.44 90.9774C1210.55 91.9149 1211.19 93.3142 1211.35 95.1752L1213.88 124.075C1214.19 127.572 1213.66 130.232 1212.31 132.055C1210.84 134.042 1208.23 135.199 1204.49 135.525L1196.28 136.245ZM1200.57 131.392L1204.11 131.082C1206.18 130.901 1207.6 130.316 1208.35 129.328C1209.11 128.34 1209.39 126.725 1209.21 124.484L1206.7 95.8422C1206.6 94.7442 1206 94.2438 1204.89 94.3411L1197.38 94.9982L1200.57 131.392Z" fill="#E5D9C3"/>
<path d="M1218.8 88.6071L1227.38 110.815L1231.85 124.066L1230.18 110.454L1228.2 87.7848L1232.65 87.3953L1236.61 132.716L1232.14 133.108L1223.58 110.898L1219.11 97.6551L1220.78 111.268L1222.76 133.928L1218.31 134.318L1214.35 88.9966L1218.8 88.6071Z" fill="#E5D9C3"/>
<path d="M1246.51 138.695L1246.4 137.368L1133.39 147.256L1128.45 90.7962L1240.12 81.0259L1245.18 138.812L1246.51 138.695L1247.84 138.579L1242.56 78.139L1125.55 88.3759L1130.95 150.14L1247.96 139.903L1247.84 138.579L1246.51 138.695Z" fill="#E5D9C3"/>
<path d="M1274.27 129.422C1272.46 129.581 1270.99 129.192 1269.88 128.257C1268.77 127.321 1268.15 125.916 1268 124.042L1265.07 90.4757C1264.91 88.6346 1265.28 87.147 1266.19 86.0127C1267.1 84.8784 1268.47 84.241 1270.31 84.1005L1277.27 83.4919C1279.08 83.3329 1280.55 83.7222 1281.65 84.6597C1282.76 85.5972 1283.39 86.9973 1283.54 88.8599L1284.28 97.3257L1279.63 97.7321L1278.91 89.5243C1278.82 88.4263 1278.22 87.9254 1277.12 88.0218L1271.25 88.5351C1270.15 88.6314 1269.65 89.2286 1269.74 90.3266L1272.64 123.391C1272.73 124.511 1273.33 125.024 1274.44 124.929L1280.31 124.415C1281.41 124.319 1281.92 123.71 1281.82 122.588L1281.1 114.377L1285.74 113.971L1286.48 122.426C1286.65 124.29 1286.27 125.779 1285.36 126.892C1284.45 128.004 1283.07 128.641 1281.24 128.801L1274.27 129.422Z" fill="#E5D9C3"/>
<path d="M1308.14 126.459L1302.66 126.938L1292.61 88.1434L1294.95 127.604L1290.41 128.002L1288.56 82.4956L1294.62 81.9657L1300.73 104.323L1304.8 122.264L1305.22 122.228L1306.11 103.852L1308.23 80.7741L1314.29 80.2442L1320.37 125.381L1315.85 125.776L1311.28 86.5105L1308.14 126.459Z" fill="#E5D9C3"/>
<path d="M1323.79 125.089L1319.83 79.7683L1332.59 78.6514C1334.39 78.4939 1335.85 78.8839 1336.96 79.8214C1338.06 80.759 1338.7 82.1582 1338.87 84.0192L1341.39 112.919C1341.7 116.417 1341.18 119.076 1339.82 120.899C1338.35 122.886 1335.74 124.043 1332 124.369L1323.79 125.089ZM1328.08 120.236L1331.62 119.926C1333.69 119.745 1335.11 119.16 1335.86 118.172C1336.62 117.184 1336.9 115.569 1336.72 113.328L1334.21 84.6863C1334.12 83.5882 1333.51 83.0879 1332.4 83.1852L1324.89 83.8423L1328.08 120.236Z" fill="#E5D9C3"/>
<path d="M1346.31 77.4512L1354.9 99.6586L1359.36 112.91L1357.69 99.2976L1355.71 76.6289L1360.16 76.2394L1364.13 121.56L1359.65 121.952L1351.09 99.7425L1346.63 86.4992L1348.29 100.112L1350.28 122.772L1345.82 123.162L1341.86 77.8407L1346.31 77.4512Z" fill="#E5D9C3"/>
<path d="M1374.03 127.539L1373.91 126.213L1260.9 136.1L1255.96 79.6403L1367.64 69.8699L1372.69 127.656L1374.03 127.539L1375.36 127.423L1370.07 66.983L1253.06 77.22L1258.46 138.984L1375.47 128.747L1375.36 127.423L1374.03 127.539Z" fill="#E5D9C3"/>
<path d="M1401.79 118.266C1399.97 118.425 1398.51 118.036 1397.4 117.101C1396.29 116.165 1395.66 114.761 1395.52 112.886L1392.58 79.3197C1392.42 77.4787 1392.79 75.991 1393.7 74.8567C1394.61 73.7224 1395.98 73.0851 1397.82 72.9446L1404.78 72.3359C1406.6 72.177 1408.06 72.5662 1409.17 73.5038C1410.28 74.4413 1410.9 75.8414 1411.05 77.704L1411.79 86.1698L1407.15 86.5761L1406.43 78.3684C1406.33 77.2703 1405.73 76.7695 1404.63 76.8658L1398.76 77.3791C1397.66 77.4755 1397.16 78.0727 1397.26 79.1707L1400.15 112.235C1400.25 113.355 1400.85 113.868 1401.95 113.773L1407.83 113.259C1408.93 113.163 1409.43 112.554 1409.33 111.432L1408.61 103.221L1413.26 102.815L1414 111.27C1414.16 113.135 1413.79 114.623 1412.87 115.736C1411.96 116.848 1410.59 117.485 1408.75 117.645L1401.79 118.266Z" fill="#E5D9C3"/>
<path d="M1435.65 115.303L1430.17 115.782L1420.12 76.9874L1422.47 116.448L1417.92 116.846L1416.07 71.3397L1422.13 70.8098L1428.25 93.1667L1432.31 111.109L1432.73 111.072L1433.62 92.6965L1435.75 69.6182L1441.8 69.0883L1447.88 114.225L1443.36 114.62L1438.79 75.3546L1435.65 115.303Z" fill="#E5D9C3"/>
<path d="M1451.3 113.933L1447.34 68.6124L1460.11 67.4955C1461.91 67.338 1463.36 67.728 1464.47 68.6655C1465.58 69.603 1466.21 71.0023 1466.38 72.8633L1468.91 101.763C1469.21 105.261 1468.69 107.92 1467.33 109.743C1465.86 111.73 1463.26 112.887 1459.51 113.213L1451.3 113.933ZM1455.6 109.08L1459.13 108.77C1461.21 108.589 1462.62 108.004 1463.38 107.016C1464.13 106.028 1464.42 104.413 1464.23 102.172L1461.73 73.5303C1461.63 72.4323 1461.03 71.9319 1459.91 72.0293L1452.4 72.6863L1455.6 109.08Z" fill="#E5D9C3"/>
<path d="M1473.82 66.2952L1482.41 88.5027L1486.88 101.754L1485.21 88.1417L1483.22 65.4729L1487.68 65.0834L1491.64 110.405L1487.16 110.796L1478.6 88.5866L1474.14 75.3432L1475.81 88.9558L1477.79 111.616L1473.34 112.006L1469.37 66.6847L1473.82 66.2952Z" fill="#E5D9C3"/>
<path d="M1501.54 116.383L1501.42 115.057L1388.41 124.944L1383.47 68.4844L1495.15 58.714L1500.21 116.5L1501.54 116.383L1502.87 116.267L1497.58 55.8271L1380.57 66.064L1385.98 127.828L1502.99 117.591L1502.87 116.267L1501.54 116.383Z" fill="#E5D9C3"/>
<path d="M1529.3 107.11C1527.48 107.269 1526.02 106.88 1524.91 105.945C1523.8 105.009 1523.17 103.605 1523.03 101.73L1520.09 68.1638C1519.93 66.3228 1520.31 64.8351 1521.22 63.7008C1522.12 62.5665 1523.5 61.9291 1525.33 61.7887L1532.29 61.18C1534.11 61.021 1535.57 61.4103 1536.68 62.3478C1537.79 63.2854 1538.42 64.6854 1538.56 66.548L1539.3 75.0138L1534.66 75.4202L1533.94 67.2124C1533.84 66.1144 1533.25 65.6135 1532.14 65.7099L1526.28 66.2232C1525.18 66.3195 1524.67 66.9167 1524.77 68.0147L1527.66 101.079C1527.76 102.199 1528.36 102.712 1529.46 102.617L1535.34 102.103C1536.44 102.007 1536.94 101.398 1536.84 100.276L1536.13 92.0653L1540.77 91.659L1541.51 100.114C1541.67 101.979 1541.3 103.467 1540.39 104.58C1539.47 105.692 1538.1 106.329 1536.27 106.489L1529.3 107.11Z" fill="#E5D9C3"/>
<path d="M1563.16 104.147L1557.68 104.626L1547.64 65.8315L1549.98 105.292L1545.43 105.69L1543.58 60.1837L1549.64 59.6538L1555.76 82.0107L1559.82 99.9526L1560.24 99.916L1561.13 81.5405L1563.26 58.4622L1569.32 57.9323L1575.39 103.069L1570.87 103.464L1566.3 64.1986L1563.16 104.147Z" fill="#E5D9C3"/>
<path d="M1578.82 102.778L1574.85 57.4565L1587.62 56.3395C1589.42 56.182 1590.87 56.572 1591.98 57.5096C1593.09 58.4471 1593.73 59.8464 1593.89 61.7074L1596.42 90.6074C1596.73 94.1047 1596.2 96.7645 1594.85 98.587C1593.38 100.574 1590.77 101.731 1587.02 102.057L1578.82 102.778ZM1583.11 97.9238L1586.64 97.6145C1588.72 97.4329 1590.14 96.8481 1590.89 95.86C1591.65 94.8719 1591.93 93.2574 1591.75 91.0164L1589.24 62.3744C1589.14 61.2764 1588.54 60.776 1587.43 60.8733L1579.92 61.5304L1583.11 97.9238Z" fill="#E5D9C3"/>
<path d="M1601.34 55.1393L1609.92 77.3467L1614.39 90.5983L1612.72 76.9858L1610.74 54.317L1615.19 53.9275L1619.15 99.2486L1614.67 99.6405L1606.12 77.4306L1601.65 64.1873L1603.32 77.7998L1605.3 100.46L1600.85 100.85L1596.89 55.5288L1601.34 55.1393Z" fill="#E5D9C3"/>
<path d="M1629.05 105.228L1628.94 103.901L1515.93 113.788L1510.99 57.3284L1622.66 47.5581L1627.72 105.344L1629.05 105.228L1630.38 105.111L1625.1 44.6712L1508.09 54.9081L1513.49 116.672L1630.5 106.435L1630.38 105.111L1629.05 105.228Z" fill="#E5D9C3"/>
<path d="M1656.81 95.9538C1655 96.1128 1653.53 95.7245 1652.42 94.789C1651.31 93.8534 1650.69 92.4486 1650.54 90.5746L1647.61 57.0079C1647.45 55.1668 1647.82 53.6792 1648.73 52.5449C1649.64 51.4106 1651.01 50.7732 1652.85 50.6327L1659.8 50.0241C1661.62 49.8651 1663.08 50.2544 1664.19 51.1919C1665.3 52.1294 1665.93 53.5295 1666.08 55.3921L1666.82 63.8579L1662.17 64.2643L1661.45 56.0565C1661.36 54.9585 1660.76 54.4576 1659.66 54.554L1653.79 55.0673C1652.69 55.1636 1652.19 55.7608 1652.28 56.8588L1655.18 89.9232C1655.27 91.0432 1655.87 91.5559 1656.97 91.4614L1662.85 90.9472C1663.95 90.8508 1664.46 90.2417 1664.36 89.1199L1663.64 80.9094L1668.28 80.503L1669.02 88.9579C1669.19 90.8227 1668.81 92.3113 1667.9 93.4238C1666.99 94.5363 1665.61 95.1728 1663.78 95.3332L1656.81 95.9538Z" fill="#E5D9C3"/>
<path d="M1690.68 92.9912L1685.2 93.4705L1675.15 54.6756L1677.49 94.1362L1672.95 94.5339L1671.1 49.0278L1677.15 48.4979L1683.27 70.8548L1687.34 88.7966L1687.76 88.76L1688.65 70.3846L1690.77 47.3063L1696.83 46.7764L1702.91 91.9128L1698.38 92.3085L1693.81 53.0427L1690.68 92.9912Z" fill="#E5D9C3"/>
<path d="M1706.33 91.6216L1702.37 46.3005L1715.13 45.1836C1716.93 45.0261 1718.39 45.4161 1719.5 46.3536C1720.6 47.2912 1721.24 48.6904 1721.4 50.5514L1723.93 79.4515C1724.24 82.9488 1723.71 85.6086 1722.36 87.4311C1720.89 89.4184 1718.28 90.575 1714.54 90.9009L1706.33 91.6216ZM1710.62 86.7679L1714.16 86.4586C1716.23 86.277 1717.65 85.6922 1718.4 84.7041C1719.16 83.716 1719.44 82.1015 1719.26 79.8605L1716.75 51.2185C1716.66 50.1204 1716.05 49.6201 1714.94 49.7174L1707.43 50.3745L1710.62 86.7679Z" fill="#E5D9C3"/>
<path d="M1728.85 43.9834L1737.43 66.1908L1741.9 79.4424L1740.23 65.8298L1738.25 43.1611L1742.7 42.7716L1746.67 88.0927L1742.19 88.4846L1733.63 66.2747L1729.16 53.0314L1730.83 66.6439L1732.82 89.3045L1728.36 89.694L1724.4 44.3729L1728.85 43.9834Z" fill="#E5D9C3"/>
<path d="M1756.57 94.0716L1756.45 92.7447L1643.44 102.632L1638.5 46.1725L1750.18 36.4021L1755.23 94.1883L1756.57 94.0716L1757.9 93.9552L1752.61 33.5152L1635.6 43.7522L1641 105.516L1758.01 95.2793L1757.9 93.9552L1756.57 94.0716Z" fill="#E5D9C3"/>
<path d="M1784.33 84.7979C1782.51 84.9569 1781.04 84.5686 1779.93 83.633C1778.82 82.6975 1778.2 81.2927 1778.06 79.4186L1775.12 45.8519C1774.96 44.0109 1775.33 42.5232 1776.24 41.3889C1777.15 40.2546 1778.52 39.6172 1780.36 39.4768L1787.32 38.8681C1789.13 38.7091 1790.6 39.0984 1791.71 40.036C1792.81 40.9735 1793.44 42.3736 1793.59 44.2362L1794.33 52.702L1789.68 53.1083L1788.97 44.9006C1788.87 43.8025 1788.27 43.3017 1787.17 43.398L1781.3 43.9113C1780.2 44.0077 1779.7 44.6049 1779.8 45.7029L1782.69 78.7673C1782.79 79.8872 1783.39 80.4 1784.49 80.3055L1790.37 79.7912C1791.47 79.6949 1791.97 79.0858 1791.87 77.964L1791.15 69.7535L1795.8 69.3471L1796.54 77.8019C1796.7 79.6667 1796.32 81.1554 1795.41 82.2679C1794.5 83.3804 1793.13 84.0169 1791.29 84.1773L1784.33 84.7979Z" fill="#E5D9C3"/>
<path d="M1818.19 81.8352L1812.71 82.3146L1802.66 43.5196L1805.01 82.9803L1800.46 83.3779L1798.61 37.8719L1804.67 37.342L1810.78 59.6988L1814.85 77.6407L1815.27 77.6041L1816.16 59.2287L1818.29 36.1504L1824.34 35.6205L1830.42 80.7568L1825.9 81.1526L1821.33 41.8868L1818.19 81.8352Z" fill="#E5D9C3"/>
<path d="M1833.84 80.4657L1829.88 35.1446L1842.64 34.0277C1844.45 33.8702 1845.9 34.2602 1847.01 35.1977C1848.12 36.1352 1848.75 37.5345 1848.92 39.3955L1851.45 68.2956C1851.75 71.7928 1851.23 74.4527 1849.87 76.2751C1848.4 78.2624 1845.8 79.419 1842.05 79.7449L1833.84 80.4657ZM1838.13 75.612L1841.67 75.3027C1843.75 75.1211 1845.16 74.5362 1845.92 73.5481C1846.67 72.56 1846.96 70.9455 1846.77 68.7046L1844.27 40.0625C1844.17 38.9645 1843.57 38.4641 1842.45 38.5614L1834.94 39.2185L1838.13 75.612Z" fill="#E5D9C3"/>
<path d="M1856.36 32.8274L1864.95 55.0349L1869.41 68.2864L1867.75 54.6739L1865.76 32.0051L1870.21 31.6156L1874.18 76.9367L1869.7 77.3286L1861.14 55.1188L1856.68 41.8754L1858.35 55.488L1860.33 78.1485L1855.88 78.538L1851.91 33.2169L1856.36 32.8274Z" fill="#E5D9C3"/>
<path d="M1884.08 82.9157L1883.96 81.5888L1770.95 91.4759L1766.01 35.0166L1877.69 25.2462L1882.74 83.0324L1884.08 82.9157L1885.41 82.7992L1880.12 22.3593L1763.11 32.5962L1768.52 94.3603L1885.53 84.1234L1885.41 82.7992L1884.08 82.9157Z" fill="#E5D9C3"/>
<path d="M1911.84 73.642C1910.02 73.8009 1908.56 73.4126 1907.45 72.4771C1906.34 71.5416 1905.71 70.1368 1905.57 68.2627L1902.63 34.696C1902.47 32.8549 1902.85 31.3673 1903.75 30.233C1904.66 29.0987 1906.04 28.4613 1907.87 28.3209L1914.83 27.7122C1916.65 27.5532 1918.11 27.9425 1919.22 28.88C1920.33 29.8176 1920.95 31.2176 1921.1 33.0802L1921.84 41.546L1917.2 41.9524L1916.48 33.7446C1916.38 32.6466 1915.78 32.1457 1914.68 32.2421L1908.82 32.7554C1907.71 32.8517 1907.21 33.4489 1907.31 34.5469L1910.2 67.6113C1910.3 68.7313 1910.9 69.244 1912 69.1495L1917.88 68.6353C1918.98 68.5389 1919.48 67.9298 1919.38 66.808L1918.66 58.5975L1923.31 58.1912L1924.05 66.646C1924.21 68.5108 1923.84 69.9995 1922.92 71.112C1922.01 72.2245 1920.64 72.8609 1918.81 73.0213L1911.84 73.642Z" fill="#E5D9C3"/>
<path d="M2011.59 71.7597L2011.48 70.4329L1898.47 80.3199L1893.53 23.8606L2005.2 14.0903L2010.26 71.8764L2011.59 71.7597L2012.92 71.6433L2007.63 11.2034L1890.63 21.4403L1896.03 83.2043L2013.04 72.9674L2012.92 71.6433L2011.59 71.7597Z" fill="#E5D9C3"/>
</g>
<defs>
<clipPath id="clip0_218_2650">
<rect width="1920" height="273" fill="white"/>
</clipPath>
</defs>
</svg>
