<svg width="72" height="74" viewBox="0 0 72 74" fill="none" xmlns="http://www.w3.org/2000/svg">
<path d="M36.9762 1.78311C36.8745 1.32555 36.4687 1 36 1C35.5313 1 35.1255 1.32555 35.0238 1.78311L30.7734 20.9141L16.0898 7.93514C15.7386 7.62473 15.2189 7.59988 14.8397 7.87539C14.4605 8.15089 14.3236 8.65281 14.5103 9.08273L22.3165 27.0583L2.80841 25.189C2.34183 25.1443 1.9068 25.4296 1.76196 25.8754C1.61712 26.3212 1.80134 26.8077 2.20509 27.0458L19.0862 37L2.20509 46.9542C1.80134 47.1923 1.61712 47.6788 1.76196 48.1246C1.9068 48.5704 2.34183 48.8557 2.80841 48.811L22.3165 46.9417L14.5103 64.9173C14.3236 65.3472 14.4605 65.8491 14.8397 66.1246C15.2189 66.4001 15.7386 66.3753 16.0898 66.0649L30.7734 53.0859L35.0238 72.2169C35.1255 72.6744 35.5313 73 36 73C36.4687 73 36.8745 72.6744 36.9762 72.2169L41.2266 53.0859L55.9102 66.0649C56.2614 66.3753 56.7811 66.4001 57.1603 66.1246C57.5395 65.8491 57.6764 65.3472 57.4897 64.9173L49.6835 46.9417L69.1916 48.811C69.6582 48.8557 70.0932 48.5704 70.238 48.1246C70.3829 47.6788 70.1987 47.1923 69.7949 46.9542L52.9138 37L69.7949 27.0458C70.1987 26.8077 70.3829 26.3212 70.238 25.8754C70.0932 25.4296 69.6582 25.1443 69.1916 25.189L49.6835 27.0583L57.4897 9.08273C57.6764 8.65281 57.5395 8.15089 57.1603 7.87539C56.7811 7.59988 56.2614 7.62473 55.9102 7.93514L41.2266 20.9141L36.9762 1.78311Z" fill="#D98C72" stroke="#212121" stroke-width="2" stroke-linejoin="round"/>
</svg>
