<svg width="18" height="18" viewBox="0 0 18 18" fill="none" xmlns="http://www.w3.org/2000/svg">
<g id="edit 6" clip-path="url(#clip0_355_10864)">
<g id="Group">
<g id="Group_2">
<path id="Vector" d="M16.9452 1.0549C16.2649 0.374625 15.3605 0 14.3986 0C13.4366 0 12.5321 0.374625 11.8519 1.05486L1.78684 11.12C1.7012 11.2056 1.63915 11.3119 1.60667 11.4286L0.0257606 17.1083C-0.0424073 17.3533 0.0269559 17.616 0.207272 17.7954C0.340866 17.9282 0.519882 18 0.703187 18C0.767241 18 0.831858 17.9912 0.895245 17.9732L6.57498 16.3599C6.81461 16.2918 7.00037 16.102 7.06323 15.8609C7.12609 15.6199 7.05669 15.3635 6.88081 15.1871L3.30007 11.5955L11.6432 3.25234L14.746 6.35516L8.35902 12.7247C8.08407 12.999 8.08347 13.4441 8.35769 13.7191C8.63187 13.9941 9.07713 13.9946 9.35205 13.7205L16.9451 6.14809C17.6254 5.46785 18 4.56346 18 3.60148C18 2.6395 17.6254 1.7351 16.9452 1.0549ZM5.04122 15.3337L1.71657 16.278L2.64768 12.9329L5.04122 15.3337ZM15.9514 5.15303L15.7417 5.36217L12.6376 2.25798L12.8463 2.04922C13.2609 1.63459 13.8122 1.40625 14.3986 1.40625C14.9849 1.40625 15.5361 1.63459 15.9508 2.04926C16.3654 2.46386 16.5937 3.01511 16.5937 3.60148C16.5937 4.18785 16.3654 4.7391 15.9514 5.15303Z" fill="#212121"/>
</g>
</g>
</g>
<defs>
<clipPath id="clip0_355_10864">
<rect width="18" height="18" fill="white"/>
</clipPath>
</defs>
</svg>
