<svg width="18" height="18" viewBox="0 0 18 18" fill="none" xmlns="http://www.w3.org/2000/svg">
<g id="eye (2) 1">
<g id="Group">
<path id="Vector (Stroke)" fill-rule="evenodd" clip-rule="evenodd" d="M9.00018 6.60034C7.68766 6.60034 6.61719 7.67113 6.61719 9C6.61719 10.3289 7.68766 11.3997 9.00018 11.3997C10.3127 11.3997 11.3832 10.3289 11.3832 9C11.3832 7.67113 10.3127 6.60034 9.00018 6.60034ZM5.21094 9C5.21094 6.90163 6.90388 5.19409 9.00018 5.19409C11.0965 5.19409 12.7894 6.90163 12.7894 9C12.7894 11.0984 11.0965 12.8059 9.00018 12.8059C6.90388 12.8059 5.21094 11.0984 5.21094 9Z" fill="#212121"/>
<path id="Vector (Stroke)_2" fill-rule="evenodd" clip-rule="evenodd" d="M2.56445 5.59828C4.08303 4.10647 6.32777 2.49658 9 2.49658C11.6722 2.49658 13.917 4.10647 15.4355 5.59828C16.2061 6.35526 16.8183 7.10979 17.2378 7.6744C17.448 7.95731 17.6109 8.19407 17.7223 8.3617C17.778 8.44555 17.8209 8.51222 17.8504 8.55884C17.8592 8.57271 17.8668 8.58482 17.8732 8.59508C17.8775 8.60205 17.8813 8.60817 17.8846 8.61342C17.8886 8.61989 17.8917 8.62503 17.894 8.62879L17.8968 8.63338L17.8978 8.63489L17.8981 8.63544C17.8982 8.63566 17.8983 8.63586 17.2969 9.00003C17.8983 9.36419 17.8983 9.36425 17.8983 9.36432L17.8982 9.36446L17.898 9.36479L17.8975 9.36562L17.896 9.368C17.8949 9.3699 17.8933 9.37243 17.8914 9.37558C17.8875 9.38186 17.8821 9.39061 17.8752 9.4017C17.8614 9.42389 17.8415 9.4555 17.8156 9.49565C17.764 9.57594 17.6886 9.69055 17.5909 9.83257C17.3955 10.1164 17.1097 10.511 16.7438 10.9608C16.4988 11.262 16.056 11.3076 15.7547 11.0626C15.4534 10.8176 15.4078 10.3747 15.6529 10.0735C15.9913 9.65732 16.2548 9.29339 16.4326 9.03514C16.4408 9.02321 16.4488 9.0115 16.4567 9.00004C16.3653 8.86649 16.2489 8.70136 16.109 8.51306C15.7204 7.99011 15.1556 7.29456 14.4501 6.60145C13.0164 5.1931 11.1127 3.90283 9 3.90283C6.88725 3.90283 4.98356 5.1931 3.54994 6.60145C2.8444 7.29456 2.27955 7.99011 1.89103 8.51306C1.75113 8.70136 1.63468 8.86648 1.54334 9.00003C1.63468 9.13358 1.75113 9.2987 1.89103 9.48701C2.27955 10.01 2.8444 10.7055 3.54994 11.3986C4.98356 12.807 6.88725 14.0972 9 14.0972C10.5669 14.0972 12.0229 13.3886 13.2693 12.4309C13.5772 12.1943 14.0186 12.2521 14.2553 12.56C14.4919 12.8679 14.4341 13.3093 14.1261 13.5459C12.7472 14.6055 10.9944 15.5035 9 15.5035C6.32777 15.5035 4.08303 13.8936 2.56445 12.4018C1.7939 11.6448 1.18171 10.8903 0.762222 10.3257C0.552038 10.0428 0.389092 9.80599 0.277723 9.63836C0.222012 9.55451 0.17913 9.48784 0.149621 9.44122C0.134864 9.41791 0.123444 9.3996 0.115429 9.38664C0.111421 9.38017 0.108264 9.37503 0.105966 9.37127L0.103163 9.36668L0.102247 9.36518L0.101911 9.36462C0.101776 9.3644 0.101656 9.3642 0.703125 9.00003C0.101656 8.63586 0.101776 8.63566 0.101911 8.63544L0.102247 8.63489L0.103163 8.63338L0.105966 8.62879C0.108264 8.62503 0.111421 8.61989 0.115429 8.61342C0.123444 8.60047 0.134864 8.58215 0.149621 8.55884C0.17913 8.51222 0.222012 8.44555 0.277723 8.3617C0.389092 8.19407 0.552038 7.95731 0.762222 7.6744C1.18171 7.10979 1.7939 6.35526 2.56445 5.59828ZM0.703125 9.00003L0.101656 8.63586C-0.0338852 8.85972 -0.0338852 9.14034 0.101656 9.3642L0.703125 9.00003ZM17.2969 9.00003L17.8983 9.36419C18.0339 9.14033 18.0339 8.85972 17.8983 8.63586L17.2969 9.00003Z" fill="#212121"/>
</g>
</g>
</svg>
