<svg width="16" height="17" viewBox="0 0 16 17" fill="none" xmlns="http://www.w3.org/2000/svg">
<g id="facebook (1)" clip-path="url(#clip0_328_11963)">
<path id="Vector" d="M16 8.5C16 4.08125 12.4187 0.5 8 0.5C3.58125 0.5 0 4.08125 0 8.5C0 12.9187 3.58125 16.5 8 16.5C8.04688 16.5 8.09375 16.5 8.14062 16.4969V10.2719H6.42188V8.26875H8.14062V6.79375C8.14062 5.08437 9.18438 4.15313 10.7094 4.15313C11.4406 4.15313 12.0688 4.20625 12.25 4.23125V6.01875H11.2C10.3719 6.01875 10.2094 6.4125 10.2094 6.99062V8.26562H12.1938L11.9344 10.2688H10.2094V16.1906C13.5531 15.2312 16 12.1531 16 8.5Z" fill="#212121"/>
</g>
<defs>
<clipPath id="clip0_328_11963">
<rect width="16" height="16" fill="white" transform="translate(0 0.5)"/>
</clipPath>
</defs>
</svg>
