<svg width="20" height="20" viewBox="0 0 20 20" fill="none" xmlns="http://www.w3.org/2000/svg">
<g id="hoodie 1" clip-path="url(#clip0_313_19237)">
<g id="Group">
<path id="Vector" d="M18.5896 5.61844L18.3831 4.86125C18.3559 4.76168 18.303 4.67105 18.2295 4.59852L16.0554 2.45129C15.5542 1.42293 14.7163 0.587031 13.6835 0.0909766L13.6143 0.0577344C13.5351 0.0197266 13.4484 0 13.3605 0H6.64094C6.55312 0 6.46641 0.0197266 6.38727 0.0577734L6.31809 0.0910156C5.28836 0.585547 4.45246 1.41781 3.9507 2.44184L1.77145 4.59898C1.69266 4.67695 1.63762 4.77566 1.61273 4.88367L1.14246 6.92156C0.666914 8.98223 0.425781 11.0994 0.425781 13.2143V19.4141C0.425781 19.7377 0.688125 20 1.01172 20H18.9898C19.3134 20 19.5757 19.7377 19.5757 19.4141V12.9818C19.5757 10.495 19.2439 8.01758 18.5896 5.61844ZM15.1059 7.62121C15.0933 7.63777 15.0818 7.6548 15.0713 7.67223C14.9753 7.7766 14.9161 7.91543 14.9161 8.06844V15.7062L14.6838 15.708C14.2167 15.7112 13.7766 15.5325 13.4449 15.2034C13.1132 14.8743 12.9306 14.4358 12.9306 13.9686C12.9306 13.645 12.6682 13.3826 12.3446 13.3826H10.5867V5.02199L11.7494 4.64699V6.44082C11.7494 6.76441 12.0117 7.02676 12.3353 7.02676C12.6589 7.02676 12.9213 6.76441 12.9213 6.44082V4.26902L15.4141 3.46496L17.0402 5.07102L15.1059 7.62121ZM14.9161 18.8281H10.5867V14.5545H11.8173C11.9306 15.1125 12.2058 15.6248 12.6196 16.0353C13.1747 16.5861 13.9117 16.8853 14.6931 16.8799L14.9162 16.8781L14.9161 18.8281ZM4.9302 7.67227C4.91965 7.65484 4.90816 7.63781 4.89559 7.62121L2.96086 5.07051L4.58398 3.46383L7.08023 4.26898V6.44078C7.08023 6.76438 7.34258 7.02672 7.66617 7.02672C7.98977 7.02672 8.25211 6.76438 8.25211 6.44078V4.64695L9.4148 5.02195V13.3826H7.65684C7.33324 13.3826 7.0709 13.6449 7.0709 13.9685C7.0709 14.9379 6.2823 15.7265 5.31293 15.7265H5.08531V8.0684C5.08531 7.91543 5.02621 7.7766 4.9302 7.67227ZM14.7094 2.4609L11.7554 3.41371L13.505 1.32582C13.9827 1.61465 14.3939 2.00242 14.7094 2.4609ZM10.0007 3.68305L7.89641 1.17188H12.1051L10.0007 3.68305ZM6.49645 1.32582L8.24605 3.41371L5.29203 2.4609C5.60754 2.00242 6.01871 1.61465 6.49645 1.32582ZM1.59766 13.2143C1.59766 11.188 1.82867 9.15949 2.2843 7.18508L2.47316 6.36664L3.91344 8.26547V18.8281H1.59766V13.2143ZM5.08531 16.8984H5.31293C6.72789 16.8984 7.91176 15.8903 8.18391 14.5545H9.4148V18.8281H5.08531V16.8984ZM18.4038 18.8281H16.088V8.26551L17.563 6.3209C18.1209 8.49633 18.4038 10.735 18.4038 12.9818V18.8281Z" fill="#212121"/>
</g>
</g>
<defs>
<clipPath id="clip0_313_19237">
<rect width="20" height="20" fill="white"/>
</clipPath>
</defs>
</svg>
