<svg width="16" height="17" viewBox="0 0 16 17" fill="none" xmlns="http://www.w3.org/2000/svg">
<g id="instagram" clip-path="url(#clip0_328_11955)">
<g id="Group">
<g id="Group_2">
<path id="Vector" d="M12 0.5H4C1.8002 0.5 0 2.29941 0 4.5V12.5C0 14.6998 1.8002 16.5 4 16.5H12C14.1998 16.5 16 14.6998 16 12.5V4.5C16 2.29941 14.1998 0.5 12 0.5ZM8 11.8332C6.15879 11.8332 4.6666 10.3404 4.6666 8.5C4.6666 6.65879 6.15879 5.1666 8 5.1666C9.84039 5.1666 11.3334 6.65879 11.3334 8.5C11.3334 10.3404 9.84039 11.8332 8 11.8332ZM12.3334 5.1666C11.7806 5.1666 11.3334 4.71879 11.3334 4.1666C11.3334 3.61441 11.7806 3.1666 12.3334 3.1666C12.8862 3.1666 13.3334 3.61441 13.3334 4.1666C13.3334 4.71879 12.8862 5.1666 12.3334 5.1666Z" fill="#212121"/>
</g>
</g>
</g>
<defs>
<clipPath id="clip0_328_11955">
<rect width="16" height="16" fill="white" transform="translate(0 0.5)"/>
</clipPath>
</defs>
</svg>
