<svg width="16" height="17" viewBox="0 0 16 17" fill="none" xmlns="http://www.w3.org/2000/svg">
<g id="link (2) 1" clip-path="url(#clip0_328_11969)">
<path id="Vector" d="M14.7909 1.70855C14.0341 0.951059 12.9741 0.508876 11.9035 0.500126C10.8047 0.491376 9.72975 0.938559 8.94944 1.70855L6.99134 3.66697C7.26915 3.62041 7.55196 3.59635 7.83758 3.59635C8.39539 3.59635 8.94476 3.68697 9.471 3.86509C9.61506 3.91384 9.75569 3.96884 9.8935 4.02947L10.5819 3.34104C10.9032 3.01885 11.3491 2.82573 11.8035 2.80917C12.3044 2.79073 12.8044 2.98666 13.1588 3.34104C13.8691 4.05165 13.8691 5.20727 13.1588 5.91789L11.7466 7.32943L9.44944 9.62691C9.00288 10.0735 8.32382 10.2594 7.71196 10.1038C7.17852 9.96816 6.71634 9.57691 6.49447 9.07317C6.46822 9.01348 6.44541 8.95254 6.42603 8.89036L4.71699 10.6103C4.87636 10.8488 5.06104 11.07 5.26573 11.271C5.72416 11.721 6.28478 12.0688 6.89603 12.2684C7.00603 12.3044 7.11759 12.3356 7.2304 12.3616C8.54664 12.6659 10.0013 12.2753 10.9866 11.351C11.0188 11.321 14.7909 7.55006 14.7909 7.55006C16.4016 5.93945 16.4016 3.31916 14.7909 1.70855ZM6.5279 13.135C6.38384 13.0863 6.24322 13.0313 6.10541 12.9706C6.10541 12.9706 5.41698 13.6591 5.41698 13.6594C5.09386 13.9825 4.64667 14.1756 4.19012 14.1912C3.692 14.2081 3.19169 14.0131 2.84013 13.6591C2.12982 12.9488 2.12982 11.7928 2.84013 11.0822L6.73009 7.23194C6.81071 7.15037 6.90884 7.08819 7.01102 7.03662C7.47821 6.80038 8.04852 6.7785 8.53226 6.97819C9.03038 7.1835 9.44038 7.62693 9.58569 8.14849C9.58694 8.15286 9.58819 8.15724 9.58944 8.16161C9.58944 8.16161 11.316 6.43507 11.3169 6.43413C11.3625 6.38819 10.8172 5.8032 10.7616 5.74789C10.5432 5.53133 10.3004 5.33883 10.0401 5.17477C9.51944 4.84696 8.92694 4.63134 8.31507 4.56009C7.08415 4.41696 5.79135 4.86008 4.9173 5.74101L1.20796 9.45004C-0.402652 11.0606 -0.402652 13.6809 1.20796 15.2915C1.96951 16.0534 3.037 16.4962 4.11387 16.5C5.20104 16.5037 6.28041 16.0603 7.04946 15.2915L9.00757 13.3334C8.72976 13.38 8.44726 13.4038 8.16133 13.4038C7.60383 13.4038 7.05415 13.3134 6.5279 13.135Z" fill="#212121"/>
</g>
<defs>
<clipPath id="clip0_328_11969">
<rect width="16" height="16" fill="white" transform="translate(0 0.5)"/>
</clipPath>
</defs>
</svg>
