<svg width="19" height="19" viewBox="0 0 19 19" fill="none" xmlns="http://www.w3.org/2000/svg">
<g clip-path="url(#clip0_328_10629)">
<path d="M14.25 1.58333C15.9964 1.58333 17.4167 3.00358 17.4167 4.75V14.25C17.4167 15.9964 15.9964 17.4167 14.25 17.4167H4.75C3.00358 17.4167 1.58333 15.9964 1.58333 14.25V4.75C1.58333 3.00358 3.00358 1.58333 4.75 1.58333H14.25ZM14.25 0H4.75C2.12642 0 0 2.12642 0 4.75V14.25C0 16.8736 2.12642 19 4.75 19H14.25C16.8736 19 19 16.8736 19 14.25V4.75C19 2.12642 16.8736 0 14.25 0Z" fill="#212121"/>
<path d="M13.4583 10.2916H5.54167C5.10467 10.2916 4.75 9.93692 4.75 9.49992C4.75 9.06292 5.10467 8.70825 5.54167 8.70825H13.4583C13.8961 8.70825 14.25 9.06292 14.25 9.49992C14.25 9.93692 13.8961 10.2916 13.4583 10.2916Z" fill="#212121"/>
<path d="M13.4583 6.33333H5.54167C5.10467 6.33333 4.75 5.97867 4.75 5.54167C4.75 5.10467 5.10467 4.75 5.54167 4.75H13.4583C13.8961 4.75 14.25 5.10467 14.25 5.54167C14.25 5.97867 13.8961 6.33333 13.4583 6.33333Z" fill="#212121"/>
<path d="M13.4583 14.2501H5.54167C5.10467 14.2501 4.75 13.8962 4.75 13.4584C4.75 13.0206 5.10467 12.6667 5.54167 12.6667H13.4583C13.8961 12.6667 14.25 13.0206 14.25 13.4584C14.25 13.8962 13.8961 14.2501 13.4583 14.2501Z" fill="#212121"/>
</g>
<defs>
<clipPath id="clip0_328_10629">
<rect width="19" height="19" fill="white"/>
</clipPath>
</defs>
</svg>
