<svg width="21" height="20" viewBox="0 0 21 20" fill="none" xmlns="http://www.w3.org/2000/svg">
<g id="location (1) 1">
<g id="g831">
<g id="g833">
<g id="Clip path group">
<mask id="mask0_151_3443" style="mask-type:luminance" maskUnits="userSpaceOnUse" x="0" y="0" width="21" height="20">
<g id="clipPath839">
<path id="path837" d="M0.666687 1.90735e-06H20.6667V20H0.666687V1.90735e-06Z" fill="white"/>
</g>
</mask>
<g mask="url(#mask0_151_3443)">
<g id="g835">
<g id="g841">
<path id="path843 (Stroke)" fill-rule="evenodd" clip-rule="evenodd" d="M3.63544 7.03125C3.63544 3.14802 6.78341 0 10.6667 0C14.55 0 17.6979 3.14802 17.6979 7.03125C17.6979 8.6115 17.1757 10.0721 16.2946 11.2466C16.2946 11.2466 16.2946 11.2466 16.2946 11.2466L12.5424 16.2492L12.5424 16.2493C12.1162 16.8174 11.4346 17.1875 10.6667 17.1875C9.89881 17.1875 9.21721 16.8174 8.791 16.2493L8.79096 16.2492L5.03873 11.2466C4.15776 10.0721 3.63544 8.61152 3.63544 7.03125ZM10.6667 1.5625C7.64637 1.5625 5.19794 4.01096 5.19794 7.03125C5.19794 8.26191 5.60358 9.39565 6.2887 10.3091L10.0409 15.3116C10.0409 15.3116 10.0409 15.3116 10.0409 15.3117C10.1848 15.5034 10.4115 15.625 10.6667 15.625C10.9219 15.625 11.1486 15.5034 11.2924 15.3117C11.2925 15.3116 11.2925 15.3116 11.2925 15.3116L15.0447 10.3091C15.7298 9.39567 16.1354 8.26193 16.1354 7.03125C16.1354 4.01096 13.687 1.5625 10.6667 1.5625Z" fill="#212121"/>
</g>
<g id="g845">
<path id="path847 (Stroke)" fill-rule="evenodd" clip-rule="evenodd" d="M8.32294 7.03125C8.32294 8.32565 9.37228 9.375 10.6667 9.375C11.9611 9.375 13.0104 8.32565 13.0104 7.03125C13.0104 5.73685 11.9611 4.6875 10.6667 4.6875C9.37228 4.6875 8.32294 5.73685 8.32294 7.03125ZM10.6667 7.8125C10.2352 7.8125 9.88544 7.46271 9.88544 7.03125C9.88544 6.59979 10.2352 6.25 10.6667 6.25C11.0981 6.25 11.4479 6.59979 11.4479 7.03125C11.4479 7.46271 11.0981 7.8125 10.6667 7.8125Z" fill="#212121"/>
</g>
<g id="g849">
<path id="path851 (Stroke)" fill-rule="evenodd" clip-rule="evenodd" d="M6.76044 19.2188C6.76044 19.6502 7.11021 20 7.54169 20H13.7917C14.2232 20 14.5729 19.6502 14.5729 19.2188C14.5729 18.7873 14.2232 18.4375 13.7917 18.4375H7.54169C7.11021 18.4375 6.76044 18.7873 6.76044 19.2188Z" fill="#212121"/>
</g>
</g>
</g>
</g>
</g>
</g>
</g>
</svg>
