<svg width="76" height="40" viewBox="0 0 76 40" fill="none" xmlns="http://www.w3.org/2000/svg">
<path d="M10.6981 34.7431C9.52134 34.7431 8.6025 34.4112 7.9416 33.7475C7.2807 33.0838 6.95738 32.1457 6.97164 30.9333V9.19464C6.97164 8.00234 7.29556 7.06723 7.94338 6.3893C8.59121 5.71138 9.50946 5.37893 10.6981 5.39197H15.2038C16.3806 5.39197 17.2988 5.72441 17.9585 6.3893C18.6182 7.05419 18.9427 7.9893 18.932 9.19464V14.6773H15.9241V9.36175C15.9241 8.65064 15.5675 8.29508 14.8543 8.29508H11.0547C10.3415 8.29508 9.98492 8.65064 9.98492 9.36175V30.7751C9.98492 31.5004 10.3415 31.8637 11.0547 31.8649H14.8614C15.5746 31.8649 15.9313 31.5016 15.9313 30.7751V25.4577H18.9392V30.9333C18.9392 32.141 18.6147 33.0767 17.9657 33.7404C17.3166 34.4041 16.3984 34.736 15.2109 34.736L10.6981 34.7431Z" fill="#212121"/>
<path d="M32.6287 34.7432H29.0805L24.8049 9.2445L24.0917 34.7378H21.1479L22.5173 5.38672H26.4399L29.1144 20.0996L30.7191 31.8596H30.9901L32.5948 20.0996L35.2604 5.38672H39.183L40.5506 34.7378H37.6211L36.8919 9.2445L32.6287 34.7432Z" fill="#212121"/>
<path d="M42.7671 34.7432V5.39209H51.0349C52.201 5.39209 53.1139 5.72453 53.7736 6.38942C54.4333 7.05431 54.7637 7.98942 54.7649 9.19476V27.9112C54.7649 30.1761 54.2782 31.8561 53.3046 32.9512C52.2491 34.1459 50.5083 34.7426 48.0822 34.7414L42.7671 34.7432ZM45.7982 31.865H48.0876C49.432 31.865 50.3746 31.5687 50.9154 30.9761C51.4563 30.3835 51.7302 29.3619 51.7374 27.9112V9.36187C51.7374 8.65076 51.3772 8.2952 50.6569 8.2952H45.7928L45.7982 31.865Z" fill="#212121"/>
<path d="M59.9197 5.39209L64.1882 20.1476L66.3136 28.9156L66.0069 20.073V5.39209H68.89V34.7432H65.9891L61.7384 19.9876L59.6131 11.225L59.9197 20.0676V34.7432H57.0366V5.39209H59.9197Z" fill="#212121"/>
<path d="M74.9157 39.1425V38.2831H1.72765V1.71864H74.0519V39.1425H74.9157H75.7778V0H0V40H75.7778V39.1425H74.9157Z" fill="#212121"/>
</svg>
