<svg width="119" height="62" viewBox="0 0 119 62" fill="none" xmlns="http://www.w3.org/2000/svg">
<path d="M17.0819 53.8517C15.2579 53.8517 13.8337 53.3374 12.8093 52.3086C11.7849 51.2799 11.2838 49.8259 11.3059 47.9466V14.2516C11.3059 12.4036 11.8079 10.9542 12.8121 9.90337C13.8162 8.85259 15.2395 8.3373 17.0819 8.35751H24.0657C25.8897 8.35751 27.313 8.87279 28.3356 9.90337C29.3581 10.9339 29.8611 12.3834 29.8445 14.2516V22.7498H25.1822V14.5107C25.1822 13.4084 24.6295 12.8573 23.524 12.8573H17.6347C16.5292 12.8573 15.9765 13.4084 15.9765 14.5107V47.7013C15.9765 48.8256 16.5292 49.3886 17.6347 49.3905H23.5351C24.6405 49.3905 25.1933 48.8274 25.1933 47.7013V39.4595H29.8556V47.9466C29.8556 49.8185 29.3526 51.2689 28.3466 52.2976C27.3406 53.3263 25.9173 53.8407 24.0767 53.8407L17.0819 53.8517Z" fill="#FAF7F3"/>
<path d="M51.075 53.8518H45.5753L38.948 14.3289L37.8426 53.8436H33.2798L35.4023 8.34937H41.4823L45.6278 31.1543L48.1151 49.3823H48.5352L51.0225 31.1543L55.1541 8.34937H61.2342L63.3539 53.8436H58.8132L57.6829 14.3289L51.075 53.8518Z" fill="#FAF7F3"/>
<path d="M66.7891 53.8519V8.35767H79.6041C81.4116 8.35767 82.8265 8.87295 83.8491 9.90353C84.8716 10.9341 85.3838 12.3835 85.3857 14.2518V43.2623C85.3857 46.7729 84.6312 49.3769 83.1223 51.0743C81.4862 52.926 78.7879 53.851 75.0275 53.8491L66.7891 53.8519ZM71.4873 49.3906H75.0358C77.1196 49.3906 78.5807 48.9314 79.419 48.0129C80.2573 47.0943 80.682 45.5108 80.693 43.2623V14.5108C80.693 13.4086 80.1347 12.8575 79.0182 12.8575H71.479L71.4873 49.3906Z" fill="#FAF7F3"/>
<path d="M93.3756 8.35767L99.9918 31.2288L103.286 44.8192L102.811 31.113V8.35767H107.28V53.8519H102.783L96.1945 30.9808L92.9002 17.3986L93.3756 31.1048V53.8519H88.9067V8.35767H93.3756Z" fill="#FAF7F3"/>
<path d="M116.619 60.6708V59.3389H3.17785V2.66389H115.28V60.6708H116.619H117.956V0H0.5V62H117.956V60.6708H116.619Z" fill="#FAF7F3"/>
</svg>
