<svg width="24" height="24" viewBox="0 0 24 24" fill="none" xmlns="http://www.w3.org/2000/svg">
<path d="M18.75 4.5H5.25C3.18237 4.5 1.5 6.18237 1.5 8.25V15.75C1.5 17.8176 3.18237 19.5 5.25 19.5H18.75C20.8176 19.5 22.5 17.8176 22.5 15.75V8.25C22.5 6.18237 20.8176 4.5 18.75 4.5ZM21 15.75C21 16.9907 19.9907 18 18.75 18H5.25C4.00928 18 3 16.9907 3 15.75V8.25C3 7.00928 4.00928 6 5.25 6H18.75C19.9907 6 21 7.00928 21 8.25V15.75Z" fill="#D98C72"/>
<path d="M16.0605 12L18.7551 9.30542C19.0481 9.01245 19.0481 8.53784 18.7551 8.24487C18.4622 7.9519 17.9875 7.9519 17.6946 8.24487L12.5273 13.4121C12.2358 13.7029 11.7642 13.7029 11.4727 13.4121L6.30542 8.24487C6.01245 7.9519 5.53784 7.9519 5.24487 8.24487C4.9519 8.53784 4.9519 9.01245 5.24487 9.30542L7.9395 12L4.77246 15.1674C4.47949 15.4603 4.47949 15.9349 4.77246 16.2279C4.91895 16.3744 5.11084 16.4476 5.30273 16.4476C5.49463 16.4476 5.68652 16.3744 5.83301 16.2279L9.00005 13.0606L10.4121 14.4727C10.8501 14.9106 11.425 15.1293 12 15.1293C12.575 15.1293 13.1499 14.9106 13.5879 14.4727L15 13.0606L18.167 16.2279C18.3135 16.3744 18.5054 16.4476 18.6973 16.4476C18.8892 16.4476 19.0811 16.3744 19.2275 16.2279C19.5205 15.9349 19.5205 15.4603 19.2275 15.1674L16.0605 12Z" fill="#D98C72"/>
</svg>
