<svg width="19" height="19" viewBox="0 0 19 19" fill="none" xmlns="http://www.w3.org/2000/svg">
<g clip-path="url(#clip0_328_11040)">
<path fill-rule="evenodd" clip-rule="evenodd" d="M14.6432 8.70833C11.0575 8.70833 10.2891 7.93986 10.2891 4.35417C10.2891 0.76851 11.0575 0 14.6432 0C18.2289 0 18.9974 0.76851 18.9974 4.35417C18.9974 7.93986 18.2289 8.70833 14.6432 8.70833ZM12.7937 6.9866C13.1997 7.07684 13.7829 7.125 14.6432 7.125C15.5035 7.125 16.0868 7.07684 16.4928 6.9866C16.8808 6.90037 17.0035 6.79811 17.0454 6.75629C17.0872 6.71447 17.1895 6.59173 17.2757 6.20371C17.3659 5.79768 17.4141 5.21444 17.4141 4.35417C17.4141 3.49389 17.3659 2.91065 17.2757 2.50464C17.1895 2.1166 17.0872 1.99387 17.0454 1.95204C17.0035 1.91023 16.8808 1.80797 16.4928 1.72173C16.0868 1.6315 15.5035 1.58333 14.6432 1.58333C13.7829 1.58333 13.1997 1.6315 12.7937 1.72173C12.4057 1.80797 12.283 1.91023 12.2411 1.95204C12.1993 1.99387 12.097 2.1166 12.0108 2.50464C11.9205 2.91065 11.8724 3.49389 11.8724 4.35417C11.8724 5.21444 11.9205 5.79768 12.0108 6.20371C12.097 6.59173 12.1993 6.71447 12.2411 6.75629C12.283 6.79811 12.4057 6.90037 12.7937 6.9866Z" fill="#212121"/>
<path fill-rule="evenodd" clip-rule="evenodd" d="M4.35417 19.0001C0.76851 19.0001 0 18.2316 0 14.6459C0 11.0602 0.76851 10.2917 4.35417 10.2917C7.93986 10.2917 8.70833 11.0602 8.70833 14.6459C8.70833 18.2316 7.93986 19.0001 4.35417 19.0001ZM1.72173 16.4955C1.6315 16.0894 1.58333 15.5062 1.58333 14.6459C1.58333 13.7856 1.6315 13.2024 1.72173 12.7963C1.80797 12.4083 1.91023 12.2856 1.95204 12.2438C1.99387 12.202 2.1166 12.0997 2.50464 12.0135C2.91065 11.9232 3.49389 11.8751 4.35417 11.8751C5.21444 11.8751 5.79768 11.9232 6.20371 12.0135C6.59173 12.0997 6.71447 12.202 6.75629 12.2438C6.79811 12.2856 6.90037 12.4083 6.9866 12.7963C7.07684 13.2024 7.125 13.7856 7.125 14.6459C7.125 15.5062 7.07684 16.0894 6.9866 16.4955C6.90037 16.8835 6.79811 17.0062 6.75629 17.0481C6.71447 17.0899 6.59173 17.1922 6.20371 17.2784C5.79768 17.3686 5.21444 17.4167 4.35417 17.4167C3.49389 17.4167 2.91065 17.3686 2.50464 17.2784C2.1166 17.1922 1.99387 17.0899 1.95204 17.0481C1.91023 17.0062 1.80797 16.8835 1.72173 16.4955Z" fill="#212121"/>
<path fill-rule="evenodd" clip-rule="evenodd" d="M0 4.35417C0 7.93986 0.76851 8.70833 4.35417 8.70833C7.93986 8.70833 8.70833 7.93986 8.70833 4.35417C8.70833 0.76851 7.93986 0 4.35417 0C0.76851 0 0 0.76851 0 4.35417ZM1.58333 4.35417C1.58333 5.21444 1.6315 5.79768 1.72173 6.20371C1.80797 6.59173 1.91023 6.71447 1.95204 6.75629C1.99387 6.79811 2.1166 6.90037 2.50464 6.9866C2.91065 7.07684 3.49389 7.125 4.35417 7.125C5.21444 7.125 5.79768 7.07684 6.20371 6.9866C6.59173 6.90037 6.71447 6.79811 6.75629 6.75629C6.79811 6.71447 6.90037 6.59173 6.9866 6.20371C7.07684 5.79768 7.125 5.21444 7.125 4.35417C7.125 3.49389 7.07684 2.91065 6.9866 2.50463C6.90037 2.1166 6.79811 1.99387 6.75629 1.95204C6.71447 1.91023 6.59173 1.80797 6.20371 1.72173C5.79768 1.6315 5.21444 1.58333 4.35417 1.58333C3.49389 1.58333 2.91065 1.6315 2.50464 1.72173C2.1166 1.80797 1.99387 1.91023 1.95204 1.95204C1.91023 1.99387 1.80797 2.1166 1.72173 2.50463C1.6315 2.91065 1.58333 3.49389 1.58333 4.35417Z" fill="#212121"/>
<path fill-rule="evenodd" clip-rule="evenodd" d="M10.2891 14.6459C10.2891 18.2315 11.0575 19.0001 14.6432 19.0001C18.2289 19.0001 18.9974 18.2315 18.9974 14.6459C18.9974 11.0602 18.2289 10.2917 14.6432 10.2917C11.0575 10.2917 10.2891 11.0602 10.2891 14.6459ZM11.8724 14.6459C11.8724 15.5062 11.9205 16.0894 12.0108 16.4955C12.097 16.8835 12.1993 17.0062 12.2411 17.0481C12.283 17.0899 12.4057 17.1922 12.7937 17.2784C13.1997 17.3686 13.7829 17.4167 14.6432 17.4167C15.5035 17.4167 16.0868 17.3686 16.4928 17.2784C16.8808 17.1922 17.0035 17.0899 17.0454 17.0481C17.0872 17.0062 17.1895 16.8835 17.2757 16.4955C17.3659 16.0894 17.4141 15.5062 17.4141 14.6459C17.4141 13.7856 17.3659 13.2024 17.2757 12.7963C17.1895 12.4083 17.0872 12.2856 17.0454 12.2438C17.0035 12.202 16.8808 12.0997 16.4928 12.0135C16.0868 11.9232 15.5035 11.8751 14.6432 11.8751C13.7829 11.8751 13.1997 11.9232 12.7937 12.0135C12.4057 12.0997 12.283 12.202 12.2411 12.2438C12.1993 12.2856 12.097 12.4083 12.0108 12.7963C11.9205 13.2024 11.8724 13.7856 11.8724 14.6459Z" fill="#212121"/>
</g>
<defs>
<clipPath id="clip0_328_11040">
<rect width="19" height="19" fill="white"/>
</clipPath>
</defs>
</svg>
