<svg width="20" height="20" viewBox="0 0 20 20" fill="none" xmlns="http://www.w3.org/2000/svg">
<path d="M17.9417 17.0583L14.7417 13.8583C15.8083 12.5917 16.4583 10.95 16.4583 9.16667C16.4583 5.15 13.1833 1.875 9.16667 1.875C5.15 1.875 1.875 5.15 1.875 9.16667C1.875 13.1833 5.15 16.4583 9.16667 16.4583C10.95 16.4583 12.5917 15.8083 13.8583 14.7417L17.0583 17.9417C17.1833 18.0667 17.3417 18.125 17.5 18.125C17.6583 18.125 17.8167 18.0667 17.9417 17.9417C18.1833 17.7 18.1833 17.3 17.9417 17.0583ZM9.16667 15.2083C5.83333 15.2083 3.125 12.5 3.125 9.16667C3.125 5.83333 5.83333 3.125 9.16667 3.125C12.5 3.125 15.2083 5.83333 15.2083 9.16667C15.2083 12.5 12.5 15.2083 9.16667 15.2083Z" fill="#FAF7F3"/>
</svg>
