<svg width="19" height="19" viewBox="0 0 19 19" fill="none" xmlns="http://www.w3.org/2000/svg">
<g id="settings-sliders 1">
<path id="Vector" fill-rule="evenodd" clip-rule="evenodd" d="M12.6667 2.375C13.1039 2.375 13.4584 2.72945 13.4584 3.16667V3.95833H16.625C17.0623 3.95833 17.4167 4.31278 17.4167 4.75C17.4167 5.18723 17.0623 5.54167 16.625 5.54167H13.4584V6.33333C13.4584 6.77056 13.1039 7.125 12.6667 7.125C12.2295 7.125 11.875 6.77056 11.875 6.33333V3.16667C11.875 2.72945 12.2295 2.375 12.6667 2.375ZM1.58337 4.75C1.58337 4.31278 1.93782 3.95833 2.37504 3.95833H9.50004C9.93728 3.95833 10.2917 4.31278 10.2917 4.75C10.2917 5.18723 9.93728 5.54167 9.50004 5.54167H2.37504C1.93782 5.54167 1.58337 5.18722 1.58337 4.75ZM6.33337 7.125C6.7706 7.125 7.12504 7.47944 7.12504 7.91667V11.0833C7.12504 11.5206 6.7706 11.875 6.33337 11.875C5.89615 11.875 5.54171 11.5206 5.54171 11.0833V10.2917H2.37504C1.93782 10.2917 1.58337 9.93724 1.58337 9.5C1.58337 9.06276 1.93782 8.70833 2.37504 8.70833H5.54171V7.91667C5.54171 7.47944 5.89615 7.125 6.33337 7.125ZM8.70837 9.5C8.70837 9.06276 9.0628 8.70833 9.50004 8.70833H16.625C17.0623 8.70833 17.4167 9.06276 17.4167 9.5C17.4167 9.93724 17.0623 10.2917 16.625 10.2917H9.50004C9.0628 10.2917 8.70837 9.93724 8.70837 9.5ZM12.6667 11.875C13.1039 11.875 13.4584 12.2294 13.4584 12.6667V13.4583H16.625C17.0623 13.4583 17.4167 13.8128 17.4167 14.25C17.4167 14.6872 17.0623 15.0417 16.625 15.0417H13.4584V15.8333C13.4584 16.2706 13.1039 16.625 12.6667 16.625C12.2295 16.625 11.875 16.2706 11.875 15.8333V12.6667C11.875 12.2294 12.2295 11.875 12.6667 11.875ZM1.58337 14.25C1.58337 13.8128 1.93782 13.4583 2.37504 13.4583H9.50004C9.93728 13.4583 10.2917 13.8128 10.2917 14.25C10.2917 14.6872 9.93728 15.0417 9.50004 15.0417H2.37504C1.93782 15.0417 1.58337 14.6872 1.58337 14.25Z" fill="white"/>
</g>
</svg>
