<svg width="14" height="14" viewBox="0 0 14 14" fill="none" xmlns="http://www.w3.org/2000/svg">
<g id="share 1" clip-path="url(#clip0_238_5490)">
<g id="Group">
<g id="Group_2">
<path id="Vector" d="M11.1016 9.07812C10.2911 9.07812 9.57685 9.47682 9.12825 10.0831L5.24973 8.09714C5.31412 7.87765 5.35938 7.65018 5.35938 7.41016C5.35938 7.0846 5.29263 6.7751 5.17732 6.49042L9.23636 4.04786C9.68808 4.578 10.352 4.92188 11.1016 4.92188C12.4586 4.92188 13.5625 3.81798 13.5625 2.46094C13.5625 1.10389 12.4586 0 11.1016 0C9.74452 0 8.64062 1.10389 8.64062 2.46094C8.64062 2.77367 8.70502 3.07032 8.81185 3.34573L4.74072 5.79545C4.28939 5.28106 3.635 4.94922 2.89844 4.94922C1.54139 4.94922 0.4375 6.05311 0.4375 7.41016C0.4375 8.7672 1.54139 9.87109 2.89844 9.87109C3.7223 9.87109 4.44858 9.46069 4.89549 8.83734L8.76124 10.8169C8.69004 11.0467 8.64062 11.2861 8.64062 11.5391C8.64062 12.8961 9.74452 14 11.1016 14C12.4586 14 13.5625 12.8961 13.5625 11.5391C13.5625 10.182 12.4586 9.07812 11.1016 9.07812Z" fill="white"/>
</g>
</g>
</g>
<defs>
<clipPath id="clip0_238_5490">
<rect width="14" height="14" fill="white"/>
</clipPath>
</defs>
</svg>
