<svg width="20" height="20" viewBox="0 0 20 20" fill="none" xmlns="http://www.w3.org/2000/svg">
<g id="shirt 1">
<g id="Icon">
<path id="Vector" fill-rule="evenodd" clip-rule="evenodd" d="M4.44141 7.17505V16.2584C4.44141 16.7159 4.62307 17.155 4.94724 17.4784C5.27057 17.8017 5.70891 17.9834 6.16641 17.9834H13.8672C14.3247 17.9834 14.7631 17.8017 15.0864 17.4784C15.4106 17.155 15.5922 16.7159 15.5922 16.2584C15.5922 13.7867 15.5922 7.17505 15.5922 7.17505C15.5922 6.83005 15.3122 6.55005 14.9672 6.55005C14.6222 6.55005 14.3422 6.83005 14.3422 7.17505V16.2584C14.3422 16.3842 14.2922 16.505 14.2031 16.5942C14.1139 16.6834 13.9931 16.7334 13.8672 16.7334H6.16641C6.04057 16.7334 5.91974 16.6834 5.83057 16.5942C5.74141 16.505 5.69141 16.3842 5.69141 16.2584V7.17505C5.69141 6.83005 5.41141 6.55005 5.06641 6.55005C4.72141 6.55005 4.44141 6.83005 4.44141 7.17505Z" fill="#212121"/>
<path id="Vector_2" fill-rule="evenodd" clip-rule="evenodd" d="M5.03179 9.51577L2.49596 7.7766C2.38762 7.70244 2.31512 7.5866 2.29512 7.45744C2.27512 7.32827 2.30929 7.19577 2.38929 7.09243L5.37262 3.2666H7.52512C8.14179 3.94244 9.03012 4.3666 10.0168 4.3666C11.0043 4.3666 11.8926 3.94243 12.5101 3.26577C12.5093 3.2666 14.6226 3.2666 14.6226 3.2666L17.606 7.09243C17.686 7.19577 17.7201 7.32827 17.7001 7.45744C17.6801 7.5866 17.6076 7.70244 17.4993 7.7766L14.9635 9.51577C14.6793 9.71077 14.6068 10.0999 14.8018 10.3841C14.9968 10.6691 15.386 10.7416 15.671 10.5466C15.671 10.5466 17.1701 9.51827 18.2068 8.80744C18.5993 8.53827 18.8626 8.1191 18.936 7.6491C19.0085 7.1791 18.8843 6.6991 18.5918 6.3241L15.421 2.25743C15.3026 2.10493 15.121 2.0166 14.9285 2.0166H12.2168C12.0201 2.0166 11.8351 2.1091 11.7168 2.26577C11.3293 2.78243 10.7118 3.1166 10.0168 3.1166C9.32262 3.1166 8.70512 2.78243 8.31679 2.26577C8.19929 2.1091 8.01429 2.0166 7.81762 2.0166H5.06679C4.87429 2.0166 4.69262 2.10493 4.57429 2.25743L1.40346 6.3241C1.11096 6.6991 0.986789 7.1791 1.05929 7.6491C1.13262 8.1191 1.39596 8.53827 1.78846 8.80744L4.32429 10.5466C4.60929 10.7416 4.99846 10.6691 5.19346 10.3841C5.38846 10.0999 5.31596 9.71077 5.03179 9.51577Z" fill="#212121"/>
</g>
</g>
</svg>
