<svg width="20" height="20" viewBox="0 0 20 20" fill="none" xmlns="http://www.w3.org/2000/svg">
<g clip-path="url(#clip0_151_3495)">
<path fill-rule="evenodd" clip-rule="evenodd" d="M5.3125 19.9998C4.0181 19.9998 2.96875 18.9504 2.96875 17.656V7.81226C1.6779 7.81226 0.625 6.75935 0.625 5.46851C0.625 4.95965 0.786904 4.46494 1.09572 4.05959L3.4375 0.937216C4.3748 -0.312538 6.25016 -0.312538 7.18746 0.937216L9.52925 4.0596C9.83802 4.46494 9.99995 4.95962 9.99996 5.46851C10 6.75937 8.94708 7.81226 7.65625 7.81226V17.656C7.65625 18.9504 6.6069 19.9998 5.3125 19.9998ZM5.3125 18.4373C4.88104 18.4373 4.53125 18.0875 4.53125 17.656V7.03101C4.53125 6.59953 4.18147 6.24976 3.75 6.24976H2.96875C2.54085 6.24976 2.1875 5.89641 2.1875 5.46851C2.1875 5.2911 2.24351 5.13088 2.33938 5.00549C2.34084 5.00357 2.3423 5.00165 2.34375 4.99972L2.84165 4.33585L4.6875 1.87472C4.9998 1.4583 5.62515 1.4583 5.93746 1.87471L8.28121 4.99972C8.28208 5.00087 8.28295 5.00202 8.28382 5.00317L8.28555 5.00545C8.33295 5.06746 8.3706 5.13795 8.39657 5.2148C8.42314 5.29346 8.43746 5.37879 8.43746 5.46851C8.43748 5.89637 8.08416 6.24976 7.65625 6.24976H6.875C6.44353 6.24976 6.09375 6.59953 6.09375 7.03101V17.656C6.09375 18.0875 5.74396 18.4373 5.3125 18.4373Z" fill="#212121"/>
<path fill-rule="evenodd" clip-rule="evenodd" d="M14.6875 0C13.3931 0 12.3438 1.04935 12.3438 2.34375V12.1875C11.0529 12.1875 10 13.2404 10 14.5312C10 15.0401 10.1619 15.5348 10.4707 15.9402L12.8125 19.0625C13.7498 20.3123 15.6252 20.3123 16.5625 19.0625L18.9042 15.9402C19.213 15.5348 19.375 15.0401 19.375 14.5312C19.375 13.2404 18.3221 12.1875 17.0312 12.1875V2.34375C17.0312 1.04935 15.9819 0 14.6875 0ZM14.6875 1.5625C14.256 1.5625 13.9062 1.91229 13.9062 2.34375V12.9688C13.9062 13.4002 13.5565 13.75 13.125 13.75H12.3438C11.9158 13.75 11.5625 14.1033 11.5625 14.5312C11.5625 14.7087 11.6185 14.8689 11.7144 14.9943C11.7158 14.9962 11.7173 14.9981 11.7188 15L12.2167 15.6639L14.0625 18.125C14.3748 18.5415 15.0002 18.5415 15.3125 18.125L17.6562 15C17.6571 14.9989 17.6579 14.9977 17.6588 14.9966L17.6606 14.9943C17.708 14.9323 17.7456 14.8618 17.7716 14.785C17.7981 14.7063 17.8125 14.621 17.8125 14.5312C17.8125 14.1034 17.4592 13.75 17.0312 13.75H16.25C15.8185 13.75 15.4688 13.4002 15.4688 12.9688V2.34375C15.4688 1.91229 15.119 1.5625 14.6875 1.5625Z" fill="#212121"/>
</g>
<defs>
<clipPath id="clip0_151_3495">
<rect width="20" height="20" fill="white"/>
</clipPath>
</defs>
</svg>
