<svg width="100" height="20" viewBox="0 0 100 20" fill="none" xmlns="http://www.w3.org/2000/svg">
<path d="M10 0L13.3151 5.43714L19.5106 6.90983L15.364 11.7429L15.8779 18.0902L10 15.64L4.12215 18.0902L4.63604 11.7429L0.489435 6.90983L6.68489 5.43714L10 0Z" fill="#212121"/>
<path d="M50 0L53.3151 5.43714L59.5106 6.90983L55.364 11.7429L55.8779 18.0902L50 15.64L44.1221 18.0902L44.636 11.7429L40.4894 6.90983L46.6849 5.43714L50 0Z" fill="#212121"/>
<path d="M90 0L93.3151 5.43714L99.5106 6.90983L95.364 11.7429L95.8779 18.0902L90 15.64L84.1221 18.0902L84.636 11.7429L80.4894 6.90983L86.6849 5.43714L90 0Z" fill="#212121"/>
</svg>
