<svg width="61" height="60" viewBox="0 0 61 60" fill="none" xmlns="http://www.w3.org/2000/svg">
<g id="thank-you (2) 1" clip-path="url(#clip0_328_15986)">
<g id="g7473">
<path id="path7477 (Stroke)" fill-rule="evenodd" clip-rule="evenodd" d="M8.43354 30.0293C8.7306 30.0291 9.00745 29.8788 9.16951 29.6299L11.5008 26.0484C11.7656 25.6416 11.6505 25.0971 11.2437 24.8323C10.8369 24.5675 10.2925 24.6826 10.0276 25.0894L8.43176 27.5411L6.81804 25.0697C6.55265 24.6633 6.00803 24.549 5.6016 24.8144C5.19517 25.0798 5.08083 25.6244 5.34622 26.0308L7.697 29.6309C7.85942 29.8797 8.13648 30.0295 8.43354 30.0293Z" fill="#797670"/>
<path id="path7481 (Stroke)" fill-rule="evenodd" clip-rule="evenodd" d="M8.42362 33.7886C8.90902 33.7898 9.30349 33.3972 9.30468 32.9118L9.31394 29.1527C9.31514 28.6673 8.92261 28.2728 8.4372 28.2716C7.9518 28.2704 7.55733 28.663 7.55614 29.1484L7.54688 32.9075C7.54568 33.3929 7.93821 33.7874 8.42362 33.7886Z" fill="#797670"/>
<g id="path7493 (Stroke)">
<path fill-rule="evenodd" clip-rule="evenodd" d="M28.2805 31.8466C28.0669 31.9541 27.8002 32.0313 27.4616 32.0308L27.4614 32.0308C27.0859 32.0303 26.801 31.9242 26.577 31.7811L26.5769 31.781C26.2844 31.5941 26.1043 31.4166 25.9956 31.2456C25.8933 31.0849 25.8281 30.8898 25.8281 30.6144V25.5504C25.8281 25.065 25.4346 24.6715 24.9492 24.6715C24.4638 24.6715 24.0703 25.065 24.0703 25.5504V30.6144C24.0703 31.2015 24.219 31.7279 24.5123 32.189C24.7991 32.6399 25.1962 32.9848 25.6305 33.2622M28.2807 31.8465C28.926 31.5214 29.184 31.1308 29.184 30.609V25.5504C29.184 25.065 29.5775 24.6715 30.0629 24.6715C30.5483 24.6715 30.9418 25.065 30.9418 25.5504V30.609C30.9418 31.9838 30.1196 32.8885 29.0713 33.4165L29.0711 33.4166C28.6199 33.6438 28.0825 33.7895 27.4592 33.7886M27.459 33.7886C26.7235 33.7876 26.1144 33.5715 25.6306 33.2623L27.459 33.7886Z" fill="#797670"/>
<path d="M27.4616 32.0308C27.8002 32.0313 28.0669 31.9541 28.2805 31.8466L27.459 33.7886L25.6305 33.2622C25.1962 32.9848 24.7991 32.6399 24.5123 32.189C24.219 31.7279 24.0703 31.2015 24.0703 30.6144V25.5504C24.0703 25.065 24.4638 24.6715 24.9492 24.6715C25.4346 24.6715 25.8281 25.065 25.8281 25.5504V30.6144C25.8281 30.8898 25.8933 31.0849 25.9956 31.2456C26.1043 31.4166 26.2844 31.5941 26.5769 31.781L26.577 31.7811C26.801 31.9242 27.0859 32.0303 27.4614 32.0308L27.4616 32.0308Z" fill="#797670"/>
</g>
<path id="path7497 (Stroke)" fill-rule="evenodd" clip-rule="evenodd" d="M12.625 29.2299C12.625 31.7476 14.6661 33.7883 17.1836 33.7883C19.7011 33.7883 21.7421 31.7475 21.7421 29.2299C21.7421 26.7123 19.7011 24.6714 17.1836 24.6714C14.6661 24.6714 12.625 26.7123 12.625 29.2299ZM17.1836 32.0305C15.6368 32.0305 14.3828 30.7767 14.3828 29.2299C14.3828 27.6831 15.6368 26.4292 17.1836 26.4292C18.7303 26.4292 19.9843 27.6831 19.9843 29.2299C19.9843 30.7767 18.7304 32.0305 17.1836 32.0305Z" fill="#797670"/>
<path id="path7501 (Stroke)" fill-rule="evenodd" clip-rule="evenodd" d="M29.1638 20.5347C29.6179 20.3633 29.8472 19.8562 29.6758 19.4021L26.9376 12.1462C26.9345 12.138 26.9313 12.13 26.928 12.1219C26.5722 11.2577 25.3474 11.2582 24.9932 12.1239C24.9904 12.1305 24.9878 12.1372 24.9853 12.1439L22.2219 19.3996C22.0491 19.8532 22.2768 20.361 22.7304 20.5338C23.184 20.7065 23.6918 20.4788 23.8646 20.0252L25.9579 14.5288L28.0312 20.0227C28.2026 20.4769 28.7097 20.7061 29.1638 20.5347Z" fill="#797670"/>
<path id="path7505 (Stroke)" fill-rule="evenodd" clip-rule="evenodd" d="M23.0312 17.9053C23.0312 18.3907 23.4247 18.7842 23.9102 18.7842H28.0107C28.4961 18.7842 28.8896 18.3907 28.8896 17.9053C28.8896 17.4199 28.4961 17.0264 28.0107 17.0264H23.9102C23.4247 17.0264 23.0312 17.4199 23.0312 17.9053Z" fill="#797670"/>
<path id="path7509 (Stroke)" fill-rule="evenodd" clip-rule="evenodd" d="M41.8633 20.5913C42.3487 20.5913 42.7422 20.1978 42.7422 19.7124V12.3531C42.7422 11.8677 42.3487 11.4742 41.8633 11.4742C41.3779 11.4742 40.9844 11.8677 40.9844 12.3531V19.7124C40.9844 20.1978 41.3779 20.5913 41.8633 20.5913Z" fill="#797670"/>
<path id="path7513 (Stroke)" fill-rule="evenodd" clip-rule="evenodd" d="M46.7224 20.3226C47.0594 19.9733 47.0494 19.4169 46.7001 19.0799L43.3874 15.8838L46.4234 13.093C46.7808 12.7645 46.8042 12.2085 46.4757 11.8512C46.1472 11.4938 45.5912 11.4704 45.2338 11.7989L41.5107 15.2212C41.3323 15.3852 41.2296 15.6155 41.2266 15.8577C41.2237 16.0999 41.3209 16.3326 41.4952 16.5008L45.4796 20.3449C45.8289 20.6819 46.3853 20.672 46.7224 20.3226Z" fill="#797670"/>
<path id="path7517 (Stroke)" fill-rule="evenodd" clip-rule="evenodd" d="M13.8633 20.5913C14.3487 20.5913 14.7422 20.1978 14.7422 19.7124V12.3531C14.7422 11.8677 14.3487 11.4742 13.8633 11.4742C13.3779 11.4742 12.9844 11.8677 12.9844 12.3531V19.7124C12.9844 20.1978 13.3779 20.5913 13.8633 20.5913Z" fill="#797670"/>
<path id="path7521 (Stroke)" fill-rule="evenodd" clip-rule="evenodd" d="M18.9648 20.5913C19.4503 20.5913 19.8437 20.1978 19.8437 19.7124V12.3531C19.8437 11.8677 19.4503 11.4742 18.9648 11.4742C18.4794 11.4742 18.0859 11.8677 18.0859 12.3531V19.7124C18.0859 20.1978 18.4794 20.5913 18.9648 20.5913Z" fill="#797670"/>
<path id="path7525 (Stroke)" fill-rule="evenodd" clip-rule="evenodd" d="M13.3438 15.9063C13.3438 16.3917 13.7372 16.7852 14.2227 16.7852H18.7295C19.2149 16.7852 19.6084 16.3917 19.6084 15.9063C19.6084 15.4208 19.2149 15.0273 18.7295 15.0273H14.2227C13.7372 15.0273 13.3438 15.4208 13.3438 15.9063Z" fill="#797670"/>
<path id="path7529 (Stroke)" fill-rule="evenodd" clip-rule="evenodd" d="M5.00781 12.3533C5.00781 12.8387 5.40131 13.2322 5.88672 13.2322H9.9509C10.4363 13.2322 10.8298 12.8387 10.8298 12.3533C10.8298 11.8679 10.4363 11.4744 9.9509 11.4744H5.88672C5.40131 11.4744 5.00781 11.8679 5.00781 12.3533Z" fill="#797670"/>
<path id="path7533 (Stroke)" fill-rule="evenodd" clip-rule="evenodd" d="M7.91016 20.5913C8.39556 20.5913 8.78906 20.1978 8.78906 19.7124V12.5881C8.78906 12.1027 8.39556 11.7092 7.91016 11.7092C7.42475 11.7092 7.03125 12.1027 7.03125 12.5881V19.7124C7.03125 20.1978 7.42475 20.5913 7.91016 20.5913Z" fill="#797670"/>
<path id="path7537 (Stroke)" fill-rule="evenodd" clip-rule="evenodd" d="M32.7852 20.5913C33.2706 20.5913 33.6641 20.1978 33.6641 19.7124V15.1862L37.0286 20.0583C37.1042 20.1676 37.2392 20.3241 37.4568 20.4228C37.7043 20.5352 38.0189 20.5492 38.3046 20.3921C38.5575 20.2531 38.6832 20.0381 38.7415 19.8919C38.8028 19.7383 38.821 19.5884 38.821 19.4644C38.821 19.4616 38.821 19.4588 38.821 19.4559L38.7522 12.3446C38.7475 11.8593 38.3502 11.4696 37.8648 11.4743C37.3794 11.479 36.9898 11.8763 36.9945 12.3616L37.0391 16.9801L33.5084 11.8674C33.2898 11.5509 32.8908 11.4133 32.5236 11.5278C32.1564 11.6423 31.9062 11.9822 31.9062 12.3669V19.7124C31.9062 20.1978 32.2997 20.5913 32.7852 20.5913Z" fill="#797670"/>
<path id="path7541 (Stroke)" fill-rule="evenodd" clip-rule="evenodd" d="M40.125 47.2417C40.125 47.7271 40.5185 48.1206 41.0039 48.1206H47.3062C47.7917 48.1206 48.1852 47.7271 48.1852 47.2417C48.1852 46.7563 47.7917 46.3628 47.3062 46.3628H41.0039C40.5185 46.3628 40.125 46.7563 40.125 47.2417Z" fill="#797670"/>
<path id="path7545 (Stroke)" fill-rule="evenodd" clip-rule="evenodd" d="M49.9439 47.2417C49.9439 47.7271 50.3374 48.1206 50.8228 48.1206H57.2489C59.0438 48.1206 60.4986 46.6656 60.4986 44.8708V7.20717C60.4986 5.41245 59.0438 3.95744 57.2489 3.95744H15.0117C14.5263 3.95744 14.1328 4.35094 14.1328 4.83635C14.1328 5.32175 14.5263 5.71526 15.0117 5.71526H57.2489C58.0729 5.71526 58.7408 6.38321 58.7408 7.20717V44.8708C58.7408 45.6949 58.0729 46.3628 57.2489 46.3628H50.8228C50.3374 46.3628 49.9439 46.7563 49.9439 47.2417Z" fill="#797670"/>
<path id="path7549 (Stroke)" fill-rule="evenodd" clip-rule="evenodd" d="M0.5 44.8708C0.5 46.6655 1.95513 48.1206 3.74996 48.1206H24.9555C25.4409 48.1206 25.8344 47.7271 25.8344 47.2417C25.8344 46.7563 25.4409 46.3628 24.9555 46.3628H3.74996C2.92589 46.3628 2.25781 45.6947 2.25781 44.8708V7.20717C2.25781 6.38324 2.9258 5.71526 3.74996 5.71526H11.4975C11.9829 5.71526 12.3764 5.32175 12.3764 4.83635C12.3764 4.35094 11.9829 3.95744 11.4975 3.95744H3.74996C1.95521 3.95744 0.5 5.4122 0.5 7.20717V44.8708Z" fill="#797670"/>
<path id="path7553 (Stroke)" fill-rule="evenodd" clip-rule="evenodd" d="M34.908 54.7741C34.908 54.7741 34.908 54.774 34.908 54.7741L36.6359 51.2291C36.6848 51.1288 36.7658 51.0478 36.8659 50.9991L40.4112 49.271C40.4112 49.271 40.4112 49.271 40.4113 49.2709C42.1024 48.4468 42.1022 46.0369 40.4112 45.2127L36.8662 43.4848C36.8661 43.4848 36.8662 43.4848 36.8662 43.4848C36.7659 43.4359 36.6848 43.3548 36.6359 43.2546M36.6359 43.2546L34.908 39.7094C34.908 39.7094 34.908 39.7095 34.908 39.7094C34.0838 38.0183 31.6738 38.0181 30.8497 39.7095L29.1216 43.2548C29.0728 43.3548 28.9919 43.4358 28.8916 43.4847C28.8916 43.4848 28.8916 43.4847 28.8916 43.4847L25.3464 45.2127C23.6555 46.0369 23.6553 48.4468 25.3464 49.2709C25.3465 49.271 25.3465 49.271 25.3465 49.271L28.8918 50.9991C28.9919 51.0479 29.0728 51.1288 29.1216 51.2288L30.8497 54.774C30.8497 54.774 30.8497 54.7741 30.8497 54.7741C31.6739 56.4654 34.0838 56.4651 34.908 54.7741M33.3279 54.004C33.1454 54.3783 32.6122 54.3782 32.4299 54.004L30.7019 50.4591C30.7018 50.459 30.7018 50.4589 30.7018 50.4589C30.481 50.0058 30.1149 49.6396 29.6618 49.4189C29.6617 49.4189 29.6616 49.4188 29.6616 49.4188L26.1165 47.6908C25.7425 47.5085 25.7423 46.9752 26.1166 46.7928L29.6618 45.0649C30.1148 44.844 30.4811 44.4778 30.7019 44.0245L32.4298 40.4796L32.4299 40.4795C32.6122 40.1053 33.1454 40.1052 33.3279 40.4795L35.0558 44.0247C35.2767 44.4778 35.6428 44.844 36.0959 45.0648L39.6411 46.7928C40.0154 46.9752 40.0152 47.5085 39.6412 47.6908L39.6411 47.6908L36.0961 49.4188C36.0961 49.4188 36.096 49.4189 36.0959 49.4189C35.6427 49.6397 35.2767 50.0059 35.0558 50.4588L33.3279 54.004Z" fill="#797670"/>
<path id="path7557 (Stroke)" fill-rule="evenodd" clip-rule="evenodd" d="M39.2536 34.3464C39.8811 35.634 41.7158 35.6337 42.3434 34.3465L42.3434 34.3463L43.39 32.1989L45.5376 31.1522C46.8248 30.5246 46.8251 28.6899 45.5375 28.0623L43.3899 27.0155L42.3434 24.8682L42.3434 24.8681C41.7158 23.5808 39.8811 23.5805 39.2536 24.8682C39.2536 24.8682 39.2536 24.8681 39.2536 24.8682L38.207 27.0155L36.0594 28.0623C34.7717 28.6899 34.772 30.5246 36.0593 31.1522L38.2069 32.1989L39.2536 34.3464C39.2536 34.3464 39.2536 34.3464 39.2536 34.3464ZM40.7985 33.504L41.8159 31.4163C41.9842 31.0713 42.2629 30.7928 42.6074 30.6248L44.6951 29.6073L42.6074 28.5896C42.263 28.4216 41.9843 28.1432 41.816 27.7984L40.7985 25.7105L39.7811 27.7979C39.6129 28.1431 39.3339 28.4217 38.9892 28.5897L36.9017 29.6073L38.9892 30.6246C39.3338 30.7927 39.6129 31.0713 39.7811 31.4166C39.7811 31.4166 39.7812 31.4167 39.7812 31.4167L40.7985 33.504Z" fill="#797670"/>
<path id="path7561 (Stroke)" fill-rule="evenodd" clip-rule="evenodd" d="M49.29 43.9808C49.9121 45.2572 51.7307 45.2569 52.3528 43.9808L53.3783 41.8767L55.4823 40.8511C55.4823 40.8511 55.4824 40.8511 55.4824 40.851C56.759 40.229 56.7586 38.4103 55.4824 37.7883L53.3783 36.7628L52.3528 34.6587C51.7308 33.3826 49.9121 33.3823 49.29 34.6586C49.29 34.6587 49.29 34.6587 49.29 34.6587L48.2644 36.7628L46.1604 37.7883C46.1604 37.7883 46.1604 37.7883 46.1604 37.7883C44.8842 38.4103 44.8839 40.229 46.1604 40.851C46.1604 40.8511 46.1605 40.8511 46.1605 40.8511L48.2644 41.8767L49.29 43.9807C49.29 43.9808 49.29 43.9808 49.29 43.9808ZM53.3614 41.8849C53.3614 41.8849 53.3614 41.8849 53.3615 41.8849L53.3614 41.8849ZM50.8214 43.1107L51.8066 41.0893C51.9731 40.748 52.2491 40.4715 52.5913 40.3048C52.5913 40.3048 52.5914 40.3047 52.5914 40.3047L54.6123 39.3197L52.5909 38.3345C52.2493 38.1678 51.9733 37.8918 51.8066 37.5501L50.8214 35.5288L49.8364 37.5497C49.8363 37.5497 49.8363 37.5498 49.8363 37.5498C49.6695 37.892 49.393 38.168 49.0518 38.3345L47.0305 39.3197L49.0513 40.3047C49.0514 40.3047 49.0514 40.3048 49.0514 40.3048C49.3933 40.4714 49.6697 40.7478 49.8363 41.0897C49.8363 41.0897 49.8363 41.0897 49.8364 41.0898L50.8214 43.1107Z" fill="#797670"/>
</g>
</g>
<defs>
<clipPath id="clip0_328_15986">
<rect width="60" height="60" fill="white" transform="translate(0.5)"/>
</clipPath>
</defs>
</svg>
