<svg width="16" height="17" viewBox="0 0 16 17" fill="none" xmlns="http://www.w3.org/2000/svg">
<g id="twitter" clip-path="url(#clip0_328_11959)">
<g id="Group">
<g id="Group_2">
<path id="Vector" d="M16 3.539C15.405 3.8 14.771 3.973 14.11 4.057C14.79 3.651 15.309 3.013 15.553 2.244C14.919 2.622 14.219 2.889 13.473 3.038C12.871 2.397 12.013 2 11.077 2C9.261 2 7.799 3.474 7.799 5.281C7.799 5.541 7.821 5.791 7.875 6.029C5.148 5.896 2.735 4.589 1.114 2.598C0.831 3.089 0.665 3.651 0.665 4.256C0.665 5.392 1.25 6.399 2.122 6.982C1.595 6.972 1.078 6.819 0.64 6.578C0.64 6.588 0.64 6.601 0.64 6.614C0.64 8.208 1.777 9.532 3.268 9.837C3.001 9.91 2.71 9.945 2.408 9.945C2.198 9.945 1.986 9.933 1.787 9.889C2.212 11.188 3.418 12.143 4.852 12.174C3.736 13.047 2.319 13.573 0.785 13.573C0.516 13.573 0.258 13.561 0 13.528C1.453 14.465 3.175 15 5.032 15C11.068 15 14.368 10 14.368 5.666C14.368 5.521 14.363 5.381 14.356 5.242C15.007 4.78 15.554 4.203 16 3.539Z" fill="#212121"/>
</g>
</g>
</g>
<defs>
<clipPath id="clip0_328_11959">
<rect width="16" height="16" fill="white" transform="translate(0 0.5)"/>
</clipPath>
</defs>
</svg>
