<svg width="20" height="20" viewBox="0 0 20 20" fill="none" xmlns="http://www.w3.org/2000/svg">
<path d="M10.0001 9.28579C10.8477 9.28579 11.6763 9.03443 12.3811 8.56351C13.0859 8.09259 13.6352 7.42326 13.9596 6.64014C14.2839 5.85703 14.3688 4.99532 14.2034 4.16397C14.0381 3.33262 13.6299 2.56898 13.0305 1.96961C12.4312 1.37025 11.6675 0.962071 10.8362 0.796706C10.0048 0.631341 9.14311 0.716212 8.36 1.04059C7.57689 1.36496 6.90755 1.91427 6.43663 2.61906C5.96571 3.32384 5.71436 4.15244 5.71436 5.00007C5.71549 6.13637 6.16738 7.2258 6.97087 8.02928C7.77435 8.83276 8.86378 9.28465 10.0001 9.28579ZM10.0001 2.14293C10.5652 2.14293 11.1176 2.3105 11.5874 2.62444C12.0573 2.93839 12.4235 3.38462 12.6397 3.90669C12.856 4.42877 12.9126 5.00324 12.8023 5.55747C12.6921 6.1117 12.42 6.6208 12.0204 7.02038C11.6208 7.41996 11.1117 7.69207 10.5575 7.80232C10.0032 7.91256 9.42876 7.85598 8.90669 7.63973C8.38461 7.42348 7.93839 7.05727 7.62444 6.58742C7.3105 6.11756 7.14293 5.56516 7.14293 5.00007C7.14293 4.24231 7.44395 3.51558 7.97976 2.97977C8.51558 2.44395 9.24231 2.14293 10.0001 2.14293Z" fill="#FAF7F3"/>
<path d="M12.0593 10.7144H7.94075C6.5929 10.7161 5.30075 11.2523 4.34775 12.2054C3.39474 13.1586 2.85869 14.4508 2.85718 15.7986C2.85812 16.7232 3.22582 17.6096 3.87958 18.2634C4.53334 18.9171 5.41976 19.2848 6.34432 19.2858H13.655C14.5798 19.2848 15.4664 18.9171 16.1203 18.2632C16.7742 17.6093 17.1419 16.7227 17.1429 15.7979C17.1414 14.4501 16.6053 13.158 15.6523 12.205C14.6993 11.2519 13.4071 10.7159 12.0593 10.7144ZM13.655 17.8572H6.34432C5.79846 17.8565 5.27519 17.6392 4.88927 17.2532C4.50336 16.8671 4.28632 16.3438 4.28575 15.7979C4.28669 14.8289 4.67208 13.8997 5.35732 13.2145C6.04256 12.5293 6.97167 12.1439 7.94075 12.1429H12.0593C13.0284 12.1443 13.9574 12.5299 14.6426 13.2152C15.3278 13.9005 15.7132 14.8296 15.7143 15.7986C15.7136 16.3445 15.4963 16.8678 15.1103 17.2537C14.7242 17.6396 14.2009 17.8566 13.655 17.8572Z" fill="#FAF7F3"/>
</svg>
