<svg width="61" height="60" viewBox="0 0 61 60" fill="none" xmlns="http://www.w3.org/2000/svg">
<g id="wallet 1" clip-path="url(#clip0_355_12225)">
<path id="Vector (Stroke)" fill-rule="evenodd" clip-rule="evenodd" d="M36.1032 23.8319C36.236 23.3529 36.732 23.0723 37.211 23.2051C41.3462 24.3514 47.5443 25.5844 56.1029 25.5844C56.6 25.5844 57.0029 25.9874 57.0029 26.4844C57.0029 26.9815 56.6 27.3844 56.1029 27.3844C47.3635 27.3844 41.0033 26.1242 36.7301 24.9396C36.2511 24.8069 35.9705 24.3109 36.1032 23.8319Z" fill="#797670"/>
<path id="Vector (Stroke)_2" fill-rule="evenodd" clip-rule="evenodd" d="M1.38438 32.6157C1.88143 32.6157 2.28438 33.0187 2.28438 33.5157V52.2657C2.28438 53.0631 2.93073 53.7095 3.72813 53.7095H4.9C13.1093 53.7095 18.5148 54.8216 22.4211 55.9416C23.6562 56.2957 24.7683 56.6596 25.7447 56.9791C26.2824 57.155 26.779 57.3175 27.2322 57.4574C28.5535 57.8654 29.5695 58.104 30.5055 58.104C31.3943 58.104 32.3579 57.8885 33.5893 57.5154C34.1174 57.3554 34.6788 57.1716 35.2969 56.9692C35.3964 56.9367 35.4973 56.9036 35.5998 56.8701C36.335 56.6298 37.1411 56.3691 38.0306 56.1049C41.6046 55.0431 46.4824 53.9368 53.786 53.7403C54.2829 53.7269 54.6965 54.1188 54.7099 54.6157C54.7232 55.1126 54.3313 55.5262 53.8344 55.5396C46.7088 55.7314 41.9876 56.8071 38.5432 57.8303C37.6781 58.0873 36.891 58.3418 36.159 58.581C36.0583 58.614 35.9585 58.6466 35.8595 58.679C35.2431 58.8809 34.6601 59.0717 34.1113 59.2381C32.8425 59.6225 31.67 59.904 30.5055 59.904C29.2827 59.904 28.0484 59.5933 26.7012 59.1773C26.191 59.0198 25.6708 58.8494 25.1221 58.6696C24.1734 58.3588 23.1394 58.0201 21.925 57.6719C18.1676 56.5946 12.9291 55.5095 4.9 55.5095H3.72813C1.93662 55.5095 0.484375 54.0572 0.484375 52.2657V33.5157C0.484375 33.0187 0.887319 32.6157 1.38438 32.6157Z" fill="#797670"/>
<path id="Vector (Stroke)_3" fill-rule="evenodd" clip-rule="evenodd" d="M22.4211 21.6367C18.5148 22.7567 13.1093 23.8688 4.9 23.8688H3.72812C2.93073 23.8688 2.28437 24.5152 2.28437 25.3126V30.0001C2.28437 30.4972 1.88143 30.9001 1.38437 30.9001C0.887319 30.9001 0.484375 30.4972 0.484375 30.0001V25.3126C0.484375 23.5211 1.93662 22.0688 3.72812 22.0688H4.9C12.9291 22.0688 18.1676 20.9837 21.925 19.9064C23.1394 19.5583 24.1734 19.2195 25.1221 18.9087C25.6708 18.729 26.191 18.5585 26.7012 18.401C28.0484 17.985 29.2827 17.6743 30.5055 17.6743C31.7283 17.6743 32.9625 17.985 34.3098 18.401C34.8199 18.5585 35.3401 18.729 35.8888 18.9087C36.8376 19.2195 37.8715 19.5583 39.0859 19.9064C42.8433 20.9837 48.0818 22.0688 56.1109 22.0688H57.2828C59.0743 22.0688 60.5266 23.5211 60.5266 25.3126V52.2657C60.5266 54.0572 59.0743 55.5095 57.2828 55.5095C56.7858 55.5095 56.3828 55.1065 56.3828 54.6095C56.3828 54.1124 56.7858 53.7095 57.2828 53.7095C58.0802 53.7095 58.7266 53.0631 58.7266 52.2657V25.3126C58.7266 24.5152 58.0802 23.8688 57.2828 23.8688H56.1109C47.9016 23.8688 42.4961 22.7567 38.5898 21.6367C37.3548 21.2826 36.2426 20.9187 35.2662 20.5993C34.7285 20.4233 34.232 20.2609 33.7787 20.1209C32.4574 19.7129 31.4414 19.4743 30.5055 19.4743C29.5695 19.4743 28.5535 19.7129 27.2322 20.1209C26.779 20.2609 26.2824 20.4233 25.7447 20.5993C24.7683 20.9187 23.6562 21.2826 22.4211 21.6367Z" fill="#797670"/>
<path id="Vector (Stroke)_4" fill-rule="evenodd" clip-rule="evenodd" d="M4 26.4845C4 25.9874 4.40294 25.5845 4.9 25.5845C13.1035 25.5845 19.2113 26.6949 23.4649 27.8112C25.5901 28.369 27.2467 28.9267 28.4549 29.341C28.5427 29.3711 28.6277 29.4003 28.71 29.4286C29.1996 29.5968 29.5929 29.7319 29.9113 29.8302C30.0957 29.8872 30.2391 29.9267 30.3496 29.9516C30.4519 29.9746 30.4977 29.9783 30.5048 29.9789C30.5059 29.979 30.5061 29.979 30.5055 29.979C30.5048 29.979 30.505 29.979 30.5061 29.9789C30.5133 29.9783 30.5591 29.9746 30.6614 29.9516C30.7718 29.9267 30.9153 29.8872 31.0996 29.8302C31.4181 29.7319 31.8114 29.5968 32.3009 29.4286C32.3832 29.4003 32.4682 29.3711 32.556 29.341C33.7642 28.9267 35.4208 28.369 37.5461 27.8112C41.7996 26.6949 47.9074 25.5845 56.1109 25.5845C56.608 25.5845 57.0109 25.9874 57.0109 26.4845C57.0109 26.9815 56.608 27.3845 56.1109 27.3845C48.076 27.3845 42.1221 28.4713 38.003 29.5523C35.9419 30.0931 34.3345 30.634 33.1399 31.0437C33.0549 31.0728 32.9715 31.1015 32.8899 31.1296C32.4038 31.2966 31.9786 31.4427 31.6307 31.5501C31.2579 31.6652 30.8468 31.779 30.5055 31.779C30.1641 31.779 29.753 31.6652 29.3802 31.5501C29.0324 31.4427 28.6071 31.2966 28.1211 31.1296C28.0394 31.1015 27.956 31.0728 27.871 31.0437C26.6765 30.634 25.069 30.0931 23.008 29.5523C18.8889 28.4713 12.9349 27.3845 4.9 27.3845C4.40294 27.3845 4 26.9815 4 26.4845Z" fill="#797670"/>
<path id="Vector (Stroke)_5" fill-rule="evenodd" clip-rule="evenodd" d="M26.2594 28.6626C26.7564 28.6626 27.1594 29.0655 27.1594 29.5626V58.0353C27.1594 58.5324 26.7564 58.9353 26.2594 58.9353C25.7623 58.9353 25.3594 58.5324 25.3594 58.0353V29.5626C25.3594 29.0655 25.7623 28.6626 26.2594 28.6626Z" fill="#797670"/>
<path id="Vector (Stroke)_6" fill-rule="evenodd" clip-rule="evenodd" d="M34.7359 28.6626C35.233 28.6626 35.6359 29.0655 35.6359 29.5626V58.0353C35.6359 58.5324 35.233 58.9353 34.7359 58.9353C34.2389 58.9353 33.8359 58.5324 33.8359 58.0353V29.5626C33.8359 29.0655 34.2389 28.6626 34.7359 28.6626Z" fill="#797670"/>
<path id="Vector (Stroke)_7" fill-rule="evenodd" clip-rule="evenodd" d="M4 33.5157C4 33.0187 4.40294 32.6157 4.9 32.6157C14.1503 32.6157 20.3325 33.9231 26.5711 36.1551C27.0391 36.3226 27.2828 36.8377 27.1154 37.3057C26.9479 37.7737 26.4328 38.0174 25.9648 37.8499C19.9196 35.6871 13.9424 34.4157 4.9 34.4157C4.40294 34.4157 4 34.0128 4 33.5157Z" fill="#797670"/>
<path id="Vector (Stroke)_8" fill-rule="evenodd" clip-rule="evenodd" d="M4 39.3751C4 38.878 4.40294 38.4751 4.9 38.4751C14.1503 38.4751 20.3325 39.7825 26.5711 42.0145C27.0391 42.1819 27.2828 42.6971 27.1154 43.1651C26.9479 43.6331 26.4328 43.8767 25.9648 43.7093C19.9196 41.5465 13.9424 40.2751 4.9 40.2751C4.40294 40.2751 4 39.8722 4 39.3751Z" fill="#797670"/>
<path id="Vector (Stroke)_9" fill-rule="evenodd" clip-rule="evenodd" d="M4 45.2345C4 44.7374 4.40294 44.3345 4.9 44.3345C14.1503 44.3345 20.3325 45.6419 26.5711 47.8739C27.0391 48.0413 27.2828 48.5564 27.1154 49.0244C26.9479 49.4924 26.4328 49.7361 25.9648 49.5687C19.9196 47.4059 13.9424 46.1345 4.9 46.1345C4.40294 46.1345 4 45.7315 4 45.2345Z" fill="#797670"/>
<path id="Vector (Stroke)_10" fill-rule="evenodd" clip-rule="evenodd" d="M34.9836 6.46178C34.5083 6.77864 34.3547 7.11755 34.3547 7.37021C34.3547 7.62288 34.5083 7.96179 34.9836 8.27865C35.4526 8.59132 36.1524 8.81396 36.9703 8.81396C37.7882 8.81396 38.488 8.59132 38.957 8.27865C39.4323 7.96179 39.5859 7.62288 39.5859 7.37021C39.5859 7.11755 39.4323 6.77864 38.957 6.46178C38.488 6.14911 37.7882 5.92646 36.9703 5.92646C36.1524 5.92646 35.4526 6.14911 34.9836 6.46178ZM33.9852 4.96409C34.7886 4.42849 35.8466 4.12646 36.9703 4.12646C38.094 4.12646 39.1521 4.42849 39.9555 4.96409C40.7526 5.49549 41.3859 6.32846 41.3859 7.37021C41.3859 8.41197 40.7526 9.24494 39.9555 9.77634C39.1521 10.3119 38.094 10.614 36.9703 10.614C35.8466 10.614 34.7886 10.3119 33.9852 9.77634C33.1881 9.24494 32.5547 8.41197 32.5547 7.37021C32.5547 6.32846 33.1881 5.49549 33.9852 4.96409Z" fill="#797670"/>
<path id="Vector (Stroke)_11" fill-rule="evenodd" clip-rule="evenodd" d="M40.7858 2.0568C40.5359 1.84869 39.8093 1.75928 39.121 2.33309L39.121 2.33312C38.5917 2.77432 38.2285 3.40867 38.0351 4.02748C38.928 3.86933 39.8514 3.52516 40.4543 3.02262M40.7858 2.05686C40.885 2.13953 40.918 2.22908 40.9017 2.35353C40.8822 2.50217 40.7755 2.75489 40.4544 3.02257M37.9685 0.950493C39.0948 0.0114917 40.815 -0.261963 41.9382 0.674097L41.9383 0.674155C42.5256 1.16369 42.7805 1.87013 42.6864 2.58769C42.5954 3.2811 42.1932 3.91646 41.6069 4.4052L41.6069 4.40526C40.3316 5.46821 38.381 5.9263 36.9703 5.9263C36.4733 5.9263 36.0703 5.52335 36.0703 5.0263C36.0703 3.73601 36.6709 2.03218 37.9684 0.950515" fill="#797670"/>
<g id="Vector (Stroke)_12">
<path d="M35.9792 0.950463L32.0094 0.674146L31.2613 2.58769L32.3407 4.4052L33.6604 3.15212C33.6024 3.11019 33.5466 3.067 33.4933 3.02257C33.1722 2.75489 33.0655 2.50217 33.046 2.35354C33.0296 2.22905 33.0627 2.1395 33.1619 2.05681C33.3911 1.86575 34.0227 1.77463 34.6574 2.20545L35.9792 0.950463Z" fill="#797670"/>
<path d="M35.9792 0.950463C34.8528 0.0115146 33.1325 -0.261997 32.0094 0.674146L35.9792 0.950463Z" fill="#797670"/>
<path d="M34.8266 2.3331C35.3559 2.77428 35.7192 3.40867 35.9126 4.02749C35.0986 3.88332 34.2593 3.58452 33.6604 3.15212L32.3407 4.4052C33.616 5.46816 35.5667 5.9263 36.9773 5.9263C37.4744 5.9263 37.8773 5.52335 37.8773 5.0263C37.8773 3.73608 37.2769 2.03216 35.9792 0.950463L34.6574 2.20545C34.7139 2.24377 34.7704 2.28622 34.8266 2.3331Z" fill="#797670"/>
<path d="M32.0094 0.674146C31.4221 1.16368 31.1671 1.87013 31.2613 2.58769L32.0094 0.674146Z" fill="#797670"/>
<path d="M31.2613 2.58769C31.3522 3.2811 31.7545 3.91646 32.3407 4.4052L31.2613 2.58769Z" fill="#797670"/>
</g>
<path id="Vector (Stroke)_13" fill-rule="evenodd" clip-rule="evenodd" d="M23.4649 25.1577C19.2113 26.274 13.1035 27.3845 4.9 27.3845C4.40294 27.3845 4 26.9815 4 26.4845C4 25.9874 4.40294 25.5845 4.9 25.5845C12.9349 25.5845 18.8889 24.4977 23.008 23.4167C25.069 22.8758 26.6765 22.3349 27.871 21.9253C27.956 21.8961 28.0394 21.8674 28.1211 21.8394C28.6071 21.6724 29.0324 21.5263 29.3802 21.4188C29.753 21.3037 30.1641 21.1899 30.5055 21.1899C30.7239 21.1899 30.9502 21.2345 31.147 21.283C31.355 21.3342 31.5902 21.4054 31.844 21.4877C32.1327 21.5813 32.4786 21.7004 32.8667 21.834C33.1465 21.9303 33.4482 22.0341 33.7665 22.1415C34.0381 22.2332 34.2498 22.4487 34.3366 22.722C34.4233 22.9952 34.3747 23.2934 34.2057 23.5249C33.508 24.4807 32.9696 25.508 32.4987 26.5593C32.2956 27.013 31.7631 27.2161 31.3095 27.0129C30.8559 26.8098 30.6528 26.2773 30.8559 25.8237C31.2048 25.0446 31.6014 24.2488 32.0808 23.4671C31.7841 23.365 31.5233 23.276 31.2888 23.2C31.0491 23.1222 30.8619 23.0665 30.7167 23.0308C30.5731 22.9954 30.513 22.9906 30.5061 22.99C30.5055 22.99 30.5053 22.9899 30.5055 22.9899C30.5061 22.9899 30.5059 22.99 30.5048 22.99C30.4977 22.9906 30.4519 22.9944 30.3496 23.0174C30.2391 23.0422 30.0957 23.0818 29.9113 23.1387C29.5929 23.237 29.1996 23.3722 28.71 23.5403C28.6277 23.5686 28.5427 23.5978 28.4549 23.6279C27.2467 24.0422 25.5901 24.6 23.4649 25.1577Z" fill="#797670"/>
<path id="Vector (Stroke)_14" fill-rule="evenodd" clip-rule="evenodd" d="M42.2079 17.7636C42.3317 18.245 42.0419 18.7357 41.5605 18.8595C39.6682 19.3463 38.1936 20.0223 37.0182 20.8097C36.6052 21.0863 36.0462 20.9758 35.7696 20.5629C35.4929 20.1499 35.6034 19.5909 36.0164 19.3142C37.3795 18.401 39.0455 17.6478 41.1121 17.1162C41.5934 16.9924 42.0841 17.2823 42.2079 17.7636Z" fill="#797670"/>
<path id="Vector (Stroke)_15" fill-rule="evenodd" clip-rule="evenodd" d="M50.24 12.8826C50.7005 13.0697 50.9221 13.5947 50.735 14.0552C50.0981 15.6224 48.7514 16.7215 46.9937 17.4666C46.5361 17.6606 46.0078 17.4469 45.8138 16.9893C45.6198 16.5316 45.8335 16.0034 46.2911 15.8094C47.7837 15.1766 48.6702 14.355 49.0674 13.3776C49.2545 12.9171 49.7795 12.6955 50.24 12.8826Z" fill="#797670"/>
<path id="Vector (Stroke)_16" fill-rule="evenodd" clip-rule="evenodd" d="M43.4766 7.25281C43.5415 6.76001 43.9936 6.41312 44.4864 6.47802C46.3723 6.72639 48.1618 7.24095 49.4174 8.26657C49.8024 8.581 49.8596 9.14798 49.5451 9.53294C49.2307 9.9179 48.6637 9.97507 48.2788 9.66063C47.4119 8.95258 46.0244 8.49612 44.2513 8.26261C43.7585 8.19771 43.4117 7.74561 43.4766 7.25281Z" fill="#797670"/>
</g>
<defs>
<clipPath id="clip0_355_12225">
<rect width="60" height="60" fill="white" transform="translate(0.5)"/>
</clipPath>
</defs>
</svg>
