<svg width="20" height="20" viewBox="0 0 20 20" fill="none" xmlns="http://www.w3.org/2000/svg">
<g id="winter-jacket 1" clip-path="url(#clip0_313_19224)">
<path id="path1002 (Stroke)" fill-rule="evenodd" clip-rule="evenodd" d="M7.25847 2.28883C7.15602 2.44194 7.08203 2.65597 7.08203 2.97457C7.08203 4.22699 8.30033 5.39043 10.0006 5.39043C11.7008 5.39043 12.9191 4.22699 12.9191 2.97457C12.9191 2.65597 12.8452 2.44194 12.7427 2.28883C12.6387 2.13338 12.4767 1.99814 12.2334 1.88602C11.7231 1.65083 10.9581 1.5625 10.0006 1.5625C9.04309 1.5625 8.2781 1.65083 7.76778 1.88602C7.52449 1.99814 7.36248 2.13338 7.25847 2.28883ZM7.2773 0.821726C8.03536 0.472369 9.02261 0.390625 10.0006 0.390625C10.9786 0.390625 11.9658 0.472369 12.7239 0.821726C13.1148 1.00187 13.466 1.26252 13.7166 1.63712C13.9689 2.01406 14.091 2.46424 14.091 2.97457C14.091 5.03785 12.1713 6.5623 10.0006 6.5623C7.82991 6.5623 5.91016 5.03785 5.91016 2.97457C5.91016 2.46424 6.0323 2.01406 6.28452 1.63712C6.53518 1.26252 6.8864 1.00187 7.2773 0.821726Z" fill="#212121"/>
<path id="path1006 (Stroke)" fill-rule="evenodd" clip-rule="evenodd" d="M9.9982 3.04688C9.51985 3.04688 9.07181 2.95148 8.67784 2.78466C8.37985 2.65848 8.03599 2.79776 7.90981 3.09575C7.78363 3.39374 7.92291 3.7376 8.2209 3.86378C8.76052 4.09227 9.36405 4.21875 9.9982 4.21875C10.6232 4.21875 11.2179 4.0958 11.7511 3.87432C12.05 3.75019 12.1916 3.40729 12.0675 3.10844C11.9433 2.80959 11.6005 2.66796 11.3016 2.79209C10.9113 2.9542 10.4694 3.04688 9.9982 3.04688Z" fill="#212121"/>
<path id="path1010 (Stroke)" fill-rule="evenodd" clip-rule="evenodd" d="M4.08203 19.0234C4.08203 19.347 4.34436 19.6094 4.66797 19.6094H15.3344C15.658 19.6094 15.9204 19.347 15.9204 19.0234V10.2961C15.9204 9.97249 15.658 9.71016 15.3344 9.71016C15.0108 9.71016 14.7485 9.97249 14.7485 10.2961V18.4375H5.25391V10.2961C5.25391 9.97249 4.99157 9.71016 4.66797 9.71016C4.34436 9.71016 4.08203 9.97249 4.08203 10.2961V19.0234Z" fill="#212121"/>
<path id="path1014 (Stroke)" fill-rule="evenodd" clip-rule="evenodd" d="M5.2364 16.2215C5.31228 15.9069 5.11878 15.5904 4.8042 15.5145L1.32167 14.6744L3.98028 5.62969C3.98104 5.62711 3.98178 5.62453 3.9825 5.62194C3.98285 5.62068 3.9832 5.61942 3.98355 5.61815C4.07447 5.28367 4.30765 5.00602 4.62137 4.85866L4.37614 4.33657L4.62138 4.85866L6.76771 3.8505C7.06061 3.71291 7.18652 3.36394 7.04894 3.07104C6.91136 2.77814 6.56239 2.65222 6.26948 2.78981L4.12316 3.79797C3.50022 4.09056 3.03669 4.6411 2.8544 5.30455L0.0237837 14.9345C-0.0214507 15.0884 -0.0016197 15.2541 0.078651 15.3929C0.158922 15.5318 0.292613 15.6317 0.448541 15.6693L4.5294 16.6537C4.84398 16.7296 5.16052 16.5361 5.2364 16.2215Z" fill="#212121"/>
<path id="path1018 (Stroke)" fill-rule="evenodd" clip-rule="evenodd" d="M14.7628 16.2215C14.8387 16.5361 15.1552 16.7296 15.4698 16.6537L19.5507 15.6693C19.7066 15.6317 19.8403 15.5318 19.9206 15.3929C20.0008 15.2541 20.0207 15.0884 19.9754 14.9345L17.1448 5.30455C16.9625 4.6411 16.499 4.09056 15.876 3.79797L13.7297 2.78981C13.4368 2.65222 13.0878 2.77814 12.9503 3.07104C12.8127 3.36394 12.9386 3.71291 13.2315 3.8505L15.3778 4.85866L15.6269 4.32831L15.3778 4.85866C15.6915 5.00602 15.9247 5.28367 16.0157 5.61815C16.0167 5.62201 16.0178 5.62585 16.0189 5.62969L18.6775 14.6744L15.195 15.5145C14.8804 15.5904 14.6869 15.9069 14.7628 16.2215Z" fill="#212121"/>
<path id="path1022 (Stroke)" fill-rule="evenodd" clip-rule="evenodd" d="M5.23652 13.8309C5.31242 13.5163 5.11894 13.1998 4.80436 13.1239L1.37975 12.2976C1.06518 12.2217 0.748631 12.4152 0.67273 12.7297C0.596829 13.0443 0.790314 13.3609 1.10489 13.4368L4.5295 14.2631C4.84408 14.339 5.16062 14.1455 5.23652 13.8309Z" fill="#212121"/>
<path id="path1026 (Stroke)" fill-rule="evenodd" clip-rule="evenodd" d="M14.7626 13.8309C14.8385 14.1455 15.155 14.339 15.4696 14.2631L18.8942 13.4368C19.2088 13.3609 19.4023 13.0443 19.3264 12.7297C19.2505 12.4152 18.9339 12.2217 18.6193 12.2976L15.1947 13.1239C14.8802 13.1998 14.6867 13.5163 14.7626 13.8309Z" fill="#212121"/>
<path id="path1030 (Stroke)" fill-rule="evenodd" clip-rule="evenodd" d="M10 19.6094C10.3236 19.6094 10.5859 19.347 10.5859 19.0234V3.63281C10.5859 3.30921 10.3236 3.04688 10 3.04688C9.6764 3.04688 9.41406 3.30921 9.41406 3.63281V19.0234C9.41406 19.347 9.6764 19.6094 10 19.6094Z" fill="#212121"/>
</g>
<defs>
<clipPath id="clip0_313_19224">
<rect width="20" height="20" fill="white"/>
</clipPath>
</defs>
</svg>
